<mxfile host="65bd71144e">
    <diagram id="l85Mj7CVSfe6IFymNGHa" name="Page-1">
        <mxGraphModel dx="3960" dy="3391" grid="1" gridSize="10" guides="1" tooltips="1" connect="1" arrows="1" fold="1" page="1" pageScale="1" pageWidth="850" pageHeight="1100" math="0" shadow="0">
            <root>
                <mxCell id="0"/>
                <mxCell id="1" parent="0"/>
                <mxCell id="14" value="" style="edgeStyle=none;html=1;fontSize=24;exitX=1;exitY=0.5;exitDx=0;exitDy=0;" parent="1" source="7" target="13" edge="1">
                    <mxGeometry relative="1" as="geometry"/>
                </mxCell>
                <mxCell id="2" value="" style="rounded=0;whiteSpace=wrap;html=1;" parent="1" vertex="1">
                    <mxGeometry x="10" y="332" width="1020" height="768" as="geometry"/>
                </mxCell>
                <mxCell id="3" value="" style="rounded=1;whiteSpace=wrap;html=1;" parent="1" vertex="1">
                    <mxGeometry x="10" y="332" width="1020" height="208" as="geometry"/>
                </mxCell>
                <mxCell id="4" value="&lt;font style=&quot;font-size: 24px;&quot;&gt;Planly&lt;/font&gt;" style="text;html=1;strokeColor=none;fillColor=none;align=center;verticalAlign=middle;whiteSpace=wrap;rounded=0;" parent="1" vertex="1">
                    <mxGeometry x="395" y="340" width="250" height="70" as="geometry"/>
                </mxCell>
                <mxCell id="5" value="&lt;font style=&quot;font-size: 24px;&quot;&gt;Log in&lt;/font&gt;" style="text;html=1;strokeColor=default;fillColor=none;align=center;verticalAlign=middle;whiteSpace=wrap;rounded=0;dashed=1;perimeterSpacing=1;" parent="1" vertex="1">
                    <mxGeometry x="520" y="430" width="250" height="70" as="geometry"/>
                </mxCell>
                <mxCell id="6" value="&lt;font style=&quot;font-size: 24px;&quot;&gt;Sign up&lt;/font&gt;" style="text;html=1;strokeColor=default;fillColor=none;align=center;verticalAlign=middle;whiteSpace=wrap;rounded=0;dashed=1;perimeterSpacing=1;" parent="1" vertex="1">
                    <mxGeometry x="270" y="430" width="250" height="70" as="geometry"/>
                </mxCell>
                <mxCell id="7" value="" style="rounded=1;whiteSpace=wrap;html=1;fontSize=24;" parent="1" vertex="1">
                    <mxGeometry x="10" y="540" width="1020" height="560" as="geometry"/>
                </mxCell>
                <mxCell id="8" value="Welcome !" style="text;html=1;strokeColor=none;fillColor=none;align=center;verticalAlign=middle;whiteSpace=wrap;rounded=0;fontSize=24;" parent="1" vertex="1">
                    <mxGeometry x="385" y="755" width="270" height="130" as="geometry"/>
                </mxCell>
                <mxCell id="17" style="edgeStyle=none;html=1;exitX=0.5;exitY=0;exitDx=0;exitDy=0;entryX=0.5;entryY=1;entryDx=0;entryDy=0;fontSize=24;" parent="1" source="13" target="16" edge="1">
                    <mxGeometry relative="1" as="geometry"/>
                </mxCell>
                <mxCell id="29" style="edgeStyle=none;html=1;exitX=0.5;exitY=1;exitDx=0;exitDy=0;entryX=0.5;entryY=0;entryDx=0;entryDy=0;fontSize=24;fontColor=#000000;" parent="1" source="13" target="23" edge="1">
                    <mxGeometry relative="1" as="geometry"/>
                </mxCell>
                <mxCell id="701" style="edgeStyle=none;html=1;exitX=1;exitY=0.5;exitDx=0;exitDy=0;entryX=0;entryY=0.5;entryDx=0;entryDy=0;fontSize=36;" edge="1" parent="1" source="13" target="698">
                    <mxGeometry relative="1" as="geometry"/>
                </mxCell>
                <mxCell id="13" value="" style="rhombus;whiteSpace=wrap;html=1;rounded=0;" parent="1" vertex="1">
                    <mxGeometry x="1275" y="678" width="310" height="284" as="geometry"/>
                </mxCell>
                <mxCell id="15" value="Login/signup?" style="text;html=1;strokeColor=none;fillColor=none;align=center;verticalAlign=middle;whiteSpace=wrap;rounded=0;dashed=1;fontSize=24;" parent="1" vertex="1">
                    <mxGeometry x="1345" y="785" width="170" height="70" as="geometry"/>
                </mxCell>
                <mxCell id="16" value="" style="rounded=1;whiteSpace=wrap;html=1;fontSize=24;" parent="1" vertex="1">
                    <mxGeometry x="920" y="-560" width="1020" height="560" as="geometry"/>
                </mxCell>
                <mxCell id="18" value="Login" style="text;html=1;strokeColor=none;fillColor=none;align=center;verticalAlign=middle;whiteSpace=wrap;rounded=0;dashed=1;fontSize=24;" parent="1" vertex="1">
                    <mxGeometry x="1310" y="-480" width="240" height="90" as="geometry"/>
                </mxCell>
                <mxCell id="19" value="" style="rounded=1;whiteSpace=wrap;html=1;strokeColor=default;fontSize=24;fillColor=#FFFFFF;fillStyle=solid;" parent="1" vertex="1">
                    <mxGeometry x="1222.5" y="-360" width="415" height="60" as="geometry"/>
                </mxCell>
                <mxCell id="20" value="" style="rounded=1;whiteSpace=wrap;html=1;strokeColor=default;fontSize=24;fillColor=#FFFFFF;fillStyle=solid;" parent="1" vertex="1">
                    <mxGeometry x="1222.5" y="-240" width="415" height="60" as="geometry"/>
                </mxCell>
                <mxCell id="21" value="Email&lt;span style=&quot;color: rgba(0, 0, 0, 0); font-family: monospace; font-size: 0px;&quot;&gt;%3CmxGraphModel%3E%3Croot%3E%3CmxCell%20id%3D%220%22%2F%3E%3CmxCell%20id%3D%221%22%20parent%3D%220%22%2F%3E%3CmxCell%20id%3D%222%22%20value%3D%22%22%20style%3D%22rounded%3D1%3BwhiteSpace%3Dwrap%3Bhtml%3D1%3Bdashed%3D1%3BstrokeColor%3Ddefault%3BfontSize%3D24%3B%22%20vertex%3D%221%22%20parent%3D%221%22%3E%3CmxGeometry%20x%3D%222092.5%22%20y%3D%22260%22%20width%3D%22415%22%20height%3D%2260%22%20as%3D%22geometry%22%2F%3E%3C%2FmxCell%3E%3C%2Froot%3E%3C%2FmxGraphModel%3E&lt;/span&gt;" style="text;html=1;strokeColor=none;fillColor=none;align=left;verticalAlign=middle;whiteSpace=wrap;rounded=0;fillStyle=solid;fontSize=24;fontColor=#000000;" parent="1" vertex="1">
                    <mxGeometry x="1247.5" y="-345" width="365" height="30" as="geometry"/>
                </mxCell>
                <mxCell id="22" value="Password" style="text;html=1;strokeColor=none;fillColor=none;align=left;verticalAlign=middle;whiteSpace=wrap;rounded=0;fillStyle=solid;fontSize=24;fontColor=#000000;" parent="1" vertex="1">
                    <mxGeometry x="1247.5" y="-225" width="365" height="30" as="geometry"/>
                </mxCell>
                <mxCell id="23" value="" style="rounded=1;whiteSpace=wrap;html=1;fontSize=24;" parent="1" vertex="1">
                    <mxGeometry x="920" y="1570" width="1020" height="560" as="geometry"/>
                </mxCell>
                <mxCell id="24" value="Signup" style="text;html=1;strokeColor=none;fillColor=none;align=center;verticalAlign=middle;whiteSpace=wrap;rounded=0;dashed=1;fontSize=24;" parent="1" vertex="1">
                    <mxGeometry x="1310" y="1650" width="240" height="90" as="geometry"/>
                </mxCell>
                <mxCell id="25" value="" style="rounded=1;whiteSpace=wrap;html=1;strokeColor=default;fontSize=24;fillColor=#FFFFFF;fillStyle=solid;" parent="1" vertex="1">
                    <mxGeometry x="1222.5" y="1770" width="415" height="60" as="geometry"/>
                </mxCell>
                <mxCell id="26" value="" style="rounded=1;whiteSpace=wrap;html=1;strokeColor=default;fontSize=24;fillColor=#FFFFFF;fillStyle=solid;" parent="1" vertex="1">
                    <mxGeometry x="1222.5" y="1890" width="415" height="60" as="geometry"/>
                </mxCell>
                <mxCell id="27" value="Email&lt;span style=&quot;color: rgba(0, 0, 0, 0); font-family: monospace; font-size: 0px;&quot;&gt;%3CmxGraphModel%3E%3Croot%3E%3CmxCell%20id%3D%220%22%2F%3E%3CmxCell%20id%3D%221%22%20parent%3D%220%22%2F%3E%3CmxCell%20id%3D%222%22%20value%3D%22%22%20style%3D%22rounded%3D1%3BwhiteSpace%3Dwrap%3Bhtml%3D1%3Bdashed%3D1%3BstrokeColor%3Ddefault%3BfontSize%3D24%3B%22%20vertex%3D%221%22%20parent%3D%221%22%3E%3CmxGeometry%20x%3D%222092.5%22%20y%3D%22260%22%20width%3D%22415%22%20height%3D%2260%22%20as%3D%22geometry%22%2F%3E%3C%2FmxCell%3E%3C%2Froot%3E%3C%2FmxGraphModel%3E&lt;/span&gt;" style="text;html=1;strokeColor=none;fillColor=none;align=left;verticalAlign=middle;whiteSpace=wrap;rounded=0;fillStyle=solid;fontSize=24;fontColor=#000000;" parent="1" vertex="1">
                    <mxGeometry x="1247.5" y="1785" width="365" height="30" as="geometry"/>
                </mxCell>
                <mxCell id="28" value="Password" style="text;html=1;strokeColor=none;fillColor=none;align=left;verticalAlign=middle;whiteSpace=wrap;rounded=0;fillStyle=solid;fontSize=24;fontColor=#000000;" parent="1" vertex="1">
                    <mxGeometry x="1247.5" y="1905" width="365" height="30" as="geometry"/>
                </mxCell>
                <mxCell id="31" value="" style="rounded=0;whiteSpace=wrap;html=1;" parent="1" vertex="1">
                    <mxGeometry x="2550" y="2935" width="1020" height="768" as="geometry"/>
                </mxCell>
                <mxCell id="55" value="" style="group" parent="1" vertex="1" connectable="0">
                    <mxGeometry x="2550" y="3150" width="140" height="550" as="geometry"/>
                </mxCell>
                <mxCell id="42" value="" style="rounded=0;whiteSpace=wrap;html=1;fillStyle=solid;strokeColor=default;fontSize=24;fontColor=#000000;fillColor=none;" parent="55" vertex="1">
                    <mxGeometry width="140" height="550" as="geometry"/>
                </mxCell>
                <mxCell id="43" value="1 am" style="text;html=1;strokeColor=none;fillColor=none;align=center;verticalAlign=middle;whiteSpace=wrap;rounded=0;fillStyle=solid;fontSize=24;fontColor=#FFFFFF;" parent="55" vertex="1">
                    <mxGeometry x="17.5" y="66.66666666666667" width="105" height="50" as="geometry"/>
                </mxCell>
                <mxCell id="45" value="2 am" style="text;html=1;strokeColor=none;fillColor=none;align=center;verticalAlign=middle;whiteSpace=wrap;rounded=0;fillStyle=solid;fontSize=24;fontColor=#FFFFFF;" parent="55" vertex="1">
                    <mxGeometry x="17.5" y="158.33333333333334" width="105" height="50" as="geometry"/>
                </mxCell>
                <mxCell id="46" value="3 am" style="text;html=1;strokeColor=none;fillColor=none;align=center;verticalAlign=middle;whiteSpace=wrap;rounded=0;fillStyle=solid;fontSize=24;fontColor=#FFFFFF;" parent="55" vertex="1">
                    <mxGeometry x="17.5" y="250" width="105" height="50" as="geometry"/>
                </mxCell>
                <mxCell id="47" value="4 am" style="text;html=1;strokeColor=none;fillColor=none;align=center;verticalAlign=middle;whiteSpace=wrap;rounded=0;fillStyle=solid;fontSize=24;fontColor=#FFFFFF;" parent="55" vertex="1">
                    <mxGeometry x="17.5" y="341.6666666666667" width="105" height="50" as="geometry"/>
                </mxCell>
                <mxCell id="54" value="5 am" style="text;html=1;strokeColor=none;fillColor=none;align=center;verticalAlign=middle;whiteSpace=wrap;rounded=0;fillStyle=solid;fontSize=24;fontColor=#FFFFFF;" parent="55" vertex="1">
                    <mxGeometry x="17.5" y="433.33333333333337" width="105" height="50" as="geometry"/>
                </mxCell>
                <mxCell id="57" value="" style="group" parent="1" vertex="1" connectable="0">
                    <mxGeometry x="2690" y="3150" width="880" height="550" as="geometry"/>
                </mxCell>
                <mxCell id="41" value="" style="rounded=0;whiteSpace=wrap;html=1;fillStyle=solid;strokeColor=default;fontSize=24;fontColor=#000000;fillColor=none;" parent="57" vertex="1">
                    <mxGeometry width="880.0000000000001" height="550" as="geometry"/>
                </mxCell>
                <mxCell id="49" value="" style="rounded=0;whiteSpace=wrap;html=1;fillStyle=solid;strokeColor=default;fontSize=24;fontColor=#FFFFFF;fillColor=none;" parent="57" vertex="1">
                    <mxGeometry width="880.0000000000001" height="91.66666666666667" as="geometry"/>
                </mxCell>
                <mxCell id="50" value="" style="rounded=0;whiteSpace=wrap;html=1;fillStyle=solid;strokeColor=default;fontSize=24;fontColor=#FFFFFF;fillColor=none;" parent="57" vertex="1">
                    <mxGeometry y="91.66666666666667" width="880.0000000000001" height="91.66666666666667" as="geometry"/>
                </mxCell>
                <mxCell id="51" value="" style="rounded=0;whiteSpace=wrap;html=1;fillStyle=solid;strokeColor=default;fontSize=24;fontColor=#FFFFFF;fillColor=none;" parent="57" vertex="1">
                    <mxGeometry y="275.83333333333337" width="880.0000000000001" height="91.66666666666667" as="geometry"/>
                </mxCell>
                <mxCell id="52" value="" style="rounded=0;whiteSpace=wrap;html=1;fillStyle=solid;strokeColor=default;fontSize=24;fontColor=#FFFFFF;fillColor=none;" parent="57" vertex="1">
                    <mxGeometry y="184.16666666666669" width="880.0000000000001" height="91.66666666666667" as="geometry"/>
                </mxCell>
                <mxCell id="53" value="" style="rounded=0;whiteSpace=wrap;html=1;fillStyle=solid;strokeColor=default;fontSize=24;fontColor=#FFFFFF;fillColor=none;" parent="57" vertex="1">
                    <mxGeometry y="367.5" width="880.0000000000001" height="91.66666666666667" as="geometry"/>
                </mxCell>
                <mxCell id="879" value="" style="rounded=1;whiteSpace=wrap;html=1;fontSize=24;fillColor=#7F00FF;" vertex="1" parent="57">
                    <mxGeometry x="20" y="90" width="860" height="210" as="geometry"/>
                </mxCell>
                <mxCell id="880" value="Event (same day)" style="text;html=1;strokeColor=none;fillColor=none;align=left;verticalAlign=middle;whiteSpace=wrap;rounded=0;fontSize=36;" vertex="1" parent="57">
                    <mxGeometry x="50" y="122.5" width="400" height="30" as="geometry"/>
                </mxCell>
                <mxCell id="58" value="" style="rounded=0;whiteSpace=wrap;html=1;fillStyle=solid;strokeColor=default;fontSize=24;fontColor=#FFFFFF;fillColor=none;" parent="1" vertex="1">
                    <mxGeometry x="2550" y="3030" width="1020" height="120" as="geometry"/>
                </mxCell>
                <mxCell id="62" value="" style="rounded=1;whiteSpace=wrap;html=1;fillStyle=solid;strokeColor=default;fontSize=64;fontColor=#FFFFFF;fillColor=none;" parent="1" vertex="1">
                    <mxGeometry x="2690" y="3040" width="870" height="100" as="geometry"/>
                </mxCell>
                <mxCell id="63" value="Mon, 3" style="text;html=1;strokeColor=none;fillColor=none;align=left;verticalAlign=middle;whiteSpace=wrap;rounded=0;fillStyle=solid;fontSize=32;fontColor=#FFFFFF;" parent="1" vertex="1">
                    <mxGeometry x="3073.75" y="3050" width="102.5" height="30" as="geometry"/>
                </mxCell>
                <mxCell id="89" style="edgeStyle=none;html=1;exitX=0.5;exitY=1;exitDx=0;exitDy=0;entryX=0.5;entryY=0;entryDx=0;entryDy=0;fontSize=32;fontColor=#FFFFFF;" parent="1" source="64" target="39" edge="1">
                    <mxGeometry relative="1" as="geometry"/>
                </mxCell>
                <mxCell id="64" value="" style="rhombus;whiteSpace=wrap;html=1;fillStyle=solid;strokeColor=default;fontSize=32;fontColor=#FFFFFF;fillColor=default;" parent="1" vertex="1">
                    <mxGeometry x="2862.5" y="2215" width="395" height="350" as="geometry"/>
                </mxCell>
                <mxCell id="90" value="Day" style="text;html=1;strokeColor=none;fillColor=none;align=center;verticalAlign=middle;whiteSpace=wrap;rounded=0;fillStyle=solid;fontSize=48;fontColor=#FFFFFF;" parent="1" vertex="1">
                    <mxGeometry x="2967.5" y="2325" width="185" height="130" as="geometry"/>
                </mxCell>
                <mxCell id="130" value="" style="rounded=0;whiteSpace=wrap;html=1;" parent="1" vertex="1">
                    <mxGeometry x="4070" y="2932" width="1020" height="768" as="geometry"/>
                </mxCell>
                <mxCell id="132" value="" style="group" parent="1" vertex="1" connectable="0">
                    <mxGeometry x="4070" y="3150" width="180" height="550" as="geometry"/>
                </mxCell>
                <mxCell id="133" value="" style="rounded=0;whiteSpace=wrap;html=1;fillStyle=solid;strokeColor=default;fontSize=24;fontColor=#000000;fillColor=none;" parent="132" vertex="1">
                    <mxGeometry width="180" height="550" as="geometry"/>
                </mxCell>
                <mxCell id="134" value="1 am" style="text;html=1;strokeColor=none;fillColor=none;align=center;verticalAlign=middle;whiteSpace=wrap;rounded=0;fillStyle=solid;fontSize=24;fontColor=#FFFFFF;" parent="132" vertex="1">
                    <mxGeometry x="22.5" y="66.66666666666667" width="135" height="50" as="geometry"/>
                </mxCell>
                <mxCell id="135" value="2 am" style="text;html=1;strokeColor=none;fillColor=none;align=center;verticalAlign=middle;whiteSpace=wrap;rounded=0;fillStyle=solid;fontSize=24;fontColor=#FFFFFF;" parent="132" vertex="1">
                    <mxGeometry x="22.5" y="158.33333333333334" width="135" height="50" as="geometry"/>
                </mxCell>
                <mxCell id="136" value="3 am" style="text;html=1;strokeColor=none;fillColor=none;align=center;verticalAlign=middle;whiteSpace=wrap;rounded=0;fillStyle=solid;fontSize=24;fontColor=#FFFFFF;" parent="132" vertex="1">
                    <mxGeometry x="22.5" y="250" width="135" height="50" as="geometry"/>
                </mxCell>
                <mxCell id="137" value="4 am" style="text;html=1;strokeColor=none;fillColor=none;align=center;verticalAlign=middle;whiteSpace=wrap;rounded=0;fillStyle=solid;fontSize=24;fontColor=#FFFFFF;" parent="132" vertex="1">
                    <mxGeometry x="22.5" y="341.6666666666667" width="135" height="50" as="geometry"/>
                </mxCell>
                <mxCell id="138" value="5 am" style="text;html=1;strokeColor=none;fillColor=none;align=center;verticalAlign=middle;whiteSpace=wrap;rounded=0;fillStyle=solid;fontSize=24;fontColor=#FFFFFF;" parent="132" vertex="1">
                    <mxGeometry x="22.5" y="433.33333333333337" width="135" height="50" as="geometry"/>
                </mxCell>
                <mxCell id="139" value="" style="group" parent="1" vertex="1" connectable="0">
                    <mxGeometry x="4970" y="3150" width="120" height="550" as="geometry"/>
                </mxCell>
                <mxCell id="140" value="" style="rounded=0;whiteSpace=wrap;html=1;fillStyle=solid;strokeColor=default;fontSize=24;fontColor=#000000;fillColor=none;" parent="139" vertex="1">
                    <mxGeometry width="120.00000000000001" height="550" as="geometry"/>
                </mxCell>
                <mxCell id="141" value="" style="rounded=0;whiteSpace=wrap;html=1;fillStyle=solid;strokeColor=default;fontSize=24;fontColor=#FFFFFF;fillColor=none;" parent="139" vertex="1">
                    <mxGeometry width="120.00000000000001" height="91.66666666666667" as="geometry"/>
                </mxCell>
                <mxCell id="142" value="" style="rounded=0;whiteSpace=wrap;html=1;fillStyle=solid;strokeColor=default;fontSize=24;fontColor=#FFFFFF;fillColor=none;" parent="139" vertex="1">
                    <mxGeometry y="91.66666666666667" width="120.00000000000001" height="91.66666666666667" as="geometry"/>
                </mxCell>
                <mxCell id="143" value="" style="rounded=0;whiteSpace=wrap;html=1;fillStyle=solid;strokeColor=default;fontSize=24;fontColor=#FFFFFF;fillColor=none;" parent="139" vertex="1">
                    <mxGeometry y="275.83333333333337" width="120.00000000000001" height="91.66666666666667" as="geometry"/>
                </mxCell>
                <mxCell id="144" value="" style="rounded=0;whiteSpace=wrap;html=1;fillStyle=solid;strokeColor=default;fontSize=24;fontColor=#FFFFFF;fillColor=none;" parent="139" vertex="1">
                    <mxGeometry y="184.16666666666669" width="120.00000000000001" height="91.66666666666667" as="geometry"/>
                </mxCell>
                <mxCell id="145" value="" style="rounded=0;whiteSpace=wrap;html=1;fillStyle=solid;strokeColor=default;fontSize=24;fontColor=#FFFFFF;fillColor=none;" parent="139" vertex="1">
                    <mxGeometry y="367.5" width="120.00000000000001" height="91.66666666666667" as="geometry"/>
                </mxCell>
                <mxCell id="151" style="edgeStyle=none;html=1;exitX=0.5;exitY=1;exitDx=0;exitDy=0;entryX=0.5;entryY=0;entryDx=0;entryDy=0;fontSize=32;fontColor=#FFFFFF;" parent="1" source="152" edge="1">
                    <mxGeometry relative="1" as="geometry">
                        <mxPoint x="4580" y="2917" as="targetPoint"/>
                    </mxGeometry>
                </mxCell>
                <mxCell id="152" value="" style="rhombus;whiteSpace=wrap;html=1;fillStyle=solid;strokeColor=default;fontSize=32;fontColor=#FFFFFF;fillColor=default;" parent="1" vertex="1">
                    <mxGeometry x="4382.5" y="2200" width="395" height="350" as="geometry"/>
                </mxCell>
                <mxCell id="153" value="Week" style="text;html=1;strokeColor=none;fillColor=none;align=center;verticalAlign=middle;whiteSpace=wrap;rounded=0;fillStyle=solid;fontSize=48;fontColor=#FFFFFF;" parent="1" vertex="1">
                    <mxGeometry x="4487.5" y="2310" width="185" height="130" as="geometry"/>
                </mxCell>
                <mxCell id="165" value="" style="group" parent="1" vertex="1" connectable="0">
                    <mxGeometry x="4850" y="3150" width="120" height="550" as="geometry"/>
                </mxCell>
                <mxCell id="166" value="" style="rounded=0;whiteSpace=wrap;html=1;fillStyle=solid;strokeColor=default;fontSize=24;fontColor=#000000;fillColor=none;" parent="165" vertex="1">
                    <mxGeometry width="120.00000000000001" height="550" as="geometry"/>
                </mxCell>
                <mxCell id="167" value="" style="rounded=0;whiteSpace=wrap;html=1;fillStyle=solid;strokeColor=default;fontSize=24;fontColor=#FFFFFF;fillColor=none;" parent="165" vertex="1">
                    <mxGeometry width="120.00000000000001" height="91.66666666666667" as="geometry"/>
                </mxCell>
                <mxCell id="168" value="" style="rounded=0;whiteSpace=wrap;html=1;fillStyle=solid;strokeColor=default;fontSize=24;fontColor=#FFFFFF;fillColor=none;" parent="165" vertex="1">
                    <mxGeometry y="91.66666666666667" width="120.00000000000001" height="91.66666666666667" as="geometry"/>
                </mxCell>
                <mxCell id="169" value="" style="rounded=0;whiteSpace=wrap;html=1;fillStyle=solid;strokeColor=default;fontSize=24;fontColor=#FFFFFF;fillColor=none;" parent="165" vertex="1">
                    <mxGeometry y="275.83333333333337" width="120.00000000000001" height="91.66666666666667" as="geometry"/>
                </mxCell>
                <mxCell id="170" value="" style="rounded=0;whiteSpace=wrap;html=1;fillStyle=solid;strokeColor=default;fontSize=24;fontColor=#FFFFFF;fillColor=none;" parent="165" vertex="1">
                    <mxGeometry y="184.16666666666669" width="120.00000000000001" height="91.66666666666667" as="geometry"/>
                </mxCell>
                <mxCell id="171" value="" style="rounded=0;whiteSpace=wrap;html=1;fillStyle=solid;strokeColor=default;fontSize=24;fontColor=#FFFFFF;fillColor=none;" parent="165" vertex="1">
                    <mxGeometry y="367.5" width="120.00000000000001" height="91.66666666666667" as="geometry"/>
                </mxCell>
                <mxCell id="172" value="" style="group" parent="1" vertex="1" connectable="0">
                    <mxGeometry x="4730" y="3150" width="120" height="550" as="geometry"/>
                </mxCell>
                <mxCell id="173" value="" style="rounded=0;whiteSpace=wrap;html=1;fillStyle=solid;strokeColor=default;fontSize=24;fontColor=#000000;fillColor=none;" parent="172" vertex="1">
                    <mxGeometry width="120.00000000000001" height="550" as="geometry"/>
                </mxCell>
                <mxCell id="174" value="" style="rounded=0;whiteSpace=wrap;html=1;fillStyle=solid;strokeColor=default;fontSize=24;fontColor=#FFFFFF;fillColor=none;" parent="172" vertex="1">
                    <mxGeometry width="120.00000000000001" height="91.66666666666667" as="geometry"/>
                </mxCell>
                <mxCell id="175" value="" style="rounded=0;whiteSpace=wrap;html=1;fillStyle=solid;strokeColor=default;fontSize=24;fontColor=#FFFFFF;fillColor=none;" parent="172" vertex="1">
                    <mxGeometry y="91.66666666666667" width="120.00000000000001" height="91.66666666666667" as="geometry"/>
                </mxCell>
                <mxCell id="176" value="" style="rounded=0;whiteSpace=wrap;html=1;fillStyle=solid;strokeColor=default;fontSize=24;fontColor=#FFFFFF;fillColor=none;" parent="172" vertex="1">
                    <mxGeometry y="275.83333333333337" width="120.00000000000001" height="91.66666666666667" as="geometry"/>
                </mxCell>
                <mxCell id="177" value="" style="rounded=0;whiteSpace=wrap;html=1;fillStyle=solid;strokeColor=default;fontSize=24;fontColor=#FFFFFF;fillColor=none;" parent="172" vertex="1">
                    <mxGeometry y="184.16666666666669" width="120.00000000000001" height="91.66666666666667" as="geometry"/>
                </mxCell>
                <mxCell id="178" value="" style="rounded=0;whiteSpace=wrap;html=1;fillStyle=solid;strokeColor=default;fontSize=24;fontColor=#FFFFFF;fillColor=none;" parent="172" vertex="1">
                    <mxGeometry y="367.5" width="120.00000000000001" height="91.66666666666667" as="geometry"/>
                </mxCell>
                <mxCell id="977" value="" style="group" vertex="1" connectable="0" parent="172">
                    <mxGeometry x="10" width="110" height="80" as="geometry"/>
                </mxCell>
                <mxCell id="978" value="" style="rounded=1;whiteSpace=wrap;html=1;fontSize=24;fillColor=#7F00FF;" vertex="1" parent="977">
                    <mxGeometry width="110" height="80" as="geometry"/>
                </mxCell>
                <mxCell id="979" value="&lt;font style=&quot;font-size: 12px;&quot;&gt;Event (split day)&lt;/font&gt;" style="text;html=1;strokeColor=none;fillColor=none;align=left;verticalAlign=middle;whiteSpace=wrap;rounded=0;fontSize=36;" vertex="1" parent="977">
                    <mxGeometry x="8" y="3.8095238095238093" width="94.88" height="11.428571428571427" as="geometry"/>
                </mxCell>
                <mxCell id="179" value="" style="group" parent="1" vertex="1" connectable="0">
                    <mxGeometry x="4610" y="3150" width="120" height="550" as="geometry"/>
                </mxCell>
                <mxCell id="180" value="" style="rounded=0;whiteSpace=wrap;html=1;fillStyle=solid;strokeColor=default;fontSize=24;fontColor=#000000;fillColor=none;" parent="179" vertex="1">
                    <mxGeometry width="120.00000000000001" height="550" as="geometry"/>
                </mxCell>
                <mxCell id="181" value="" style="rounded=0;whiteSpace=wrap;html=1;fillStyle=solid;strokeColor=default;fontSize=24;fontColor=#FFFFFF;fillColor=none;" parent="179" vertex="1">
                    <mxGeometry width="120.00000000000001" height="91.66666666666667" as="geometry"/>
                </mxCell>
                <mxCell id="182" value="" style="rounded=0;whiteSpace=wrap;html=1;fillStyle=solid;strokeColor=default;fontSize=24;fontColor=#FFFFFF;fillColor=none;" parent="179" vertex="1">
                    <mxGeometry y="91.66666666666667" width="120.00000000000001" height="91.66666666666667" as="geometry"/>
                </mxCell>
                <mxCell id="183" value="" style="rounded=0;whiteSpace=wrap;html=1;fillStyle=solid;strokeColor=default;fontSize=24;fontColor=#FFFFFF;fillColor=none;" parent="179" vertex="1">
                    <mxGeometry y="275.83333333333337" width="120.00000000000001" height="91.66666666666667" as="geometry"/>
                </mxCell>
                <mxCell id="184" value="" style="rounded=0;whiteSpace=wrap;html=1;fillStyle=solid;strokeColor=default;fontSize=24;fontColor=#FFFFFF;fillColor=none;" parent="179" vertex="1">
                    <mxGeometry y="184.16666666666669" width="120.00000000000001" height="91.66666666666667" as="geometry"/>
                </mxCell>
                <mxCell id="185" value="" style="rounded=0;whiteSpace=wrap;html=1;fillStyle=solid;strokeColor=default;fontSize=24;fontColor=#FFFFFF;fillColor=none;" parent="179" vertex="1">
                    <mxGeometry y="367.5" width="120.00000000000001" height="91.66666666666667" as="geometry"/>
                </mxCell>
                <mxCell id="186" value="" style="group" parent="1" vertex="1" connectable="0">
                    <mxGeometry x="4490" y="3150" width="120" height="550" as="geometry"/>
                </mxCell>
                <mxCell id="187" value="" style="rounded=0;whiteSpace=wrap;html=1;fillStyle=solid;strokeColor=default;fontSize=24;fontColor=#000000;fillColor=none;" parent="186" vertex="1">
                    <mxGeometry width="120.00000000000001" height="550" as="geometry"/>
                </mxCell>
                <mxCell id="188" value="" style="rounded=0;whiteSpace=wrap;html=1;fillStyle=solid;strokeColor=default;fontSize=24;fontColor=#FFFFFF;fillColor=none;" parent="186" vertex="1">
                    <mxGeometry width="120.00000000000001" height="91.66666666666667" as="geometry"/>
                </mxCell>
                <mxCell id="189" value="" style="rounded=0;whiteSpace=wrap;html=1;fillStyle=solid;strokeColor=default;fontSize=24;fontColor=#FFFFFF;fillColor=none;" parent="186" vertex="1">
                    <mxGeometry y="91.66666666666667" width="120.00000000000001" height="91.66666666666667" as="geometry"/>
                </mxCell>
                <mxCell id="190" value="" style="rounded=0;whiteSpace=wrap;html=1;fillStyle=solid;strokeColor=default;fontSize=24;fontColor=#FFFFFF;fillColor=none;" parent="186" vertex="1">
                    <mxGeometry y="275.83333333333337" width="120.00000000000001" height="91.66666666666667" as="geometry"/>
                </mxCell>
                <mxCell id="191" value="" style="rounded=0;whiteSpace=wrap;html=1;fillStyle=solid;strokeColor=default;fontSize=24;fontColor=#FFFFFF;fillColor=none;" parent="186" vertex="1">
                    <mxGeometry y="184.16666666666669" width="120.00000000000001" height="91.66666666666667" as="geometry"/>
                </mxCell>
                <mxCell id="192" value="" style="rounded=0;whiteSpace=wrap;html=1;fillStyle=solid;strokeColor=default;fontSize=24;fontColor=#FFFFFF;fillColor=none;" parent="186" vertex="1">
                    <mxGeometry y="367.5" width="120.00000000000001" height="91.66666666666667" as="geometry"/>
                </mxCell>
                <mxCell id="970" value="" style="rounded=1;whiteSpace=wrap;html=1;strokeColor=#3399FF;fontSize=24;fillColor=#7F00FF;" vertex="1" parent="186">
                    <mxGeometry x="10" y="230" width="110" height="120" as="geometry"/>
                </mxCell>
                <mxCell id="971" value="&lt;span style=&quot;font-size: 12px;&quot;&gt;Event (same day)&lt;/span&gt;" style="text;html=1;strokeColor=none;fillColor=none;align=center;verticalAlign=middle;whiteSpace=wrap;rounded=0;fontSize=24;" vertex="1" parent="186">
                    <mxGeometry x="10" y="230" width="100" height="30" as="geometry"/>
                </mxCell>
                <mxCell id="193" value="" style="group" parent="1" vertex="1" connectable="0">
                    <mxGeometry x="4370" y="3150" width="120" height="550" as="geometry"/>
                </mxCell>
                <mxCell id="194" value="" style="rounded=0;whiteSpace=wrap;html=1;fillStyle=solid;strokeColor=default;fontSize=24;fontColor=#000000;fillColor=none;" parent="193" vertex="1">
                    <mxGeometry width="120.00000000000001" height="550" as="geometry"/>
                </mxCell>
                <mxCell id="195" value="" style="rounded=0;whiteSpace=wrap;html=1;fillStyle=solid;strokeColor=default;fontSize=24;fontColor=#FFFFFF;fillColor=none;" parent="193" vertex="1">
                    <mxGeometry width="120.00000000000001" height="91.66666666666667" as="geometry"/>
                </mxCell>
                <mxCell id="196" value="" style="rounded=0;whiteSpace=wrap;html=1;fillStyle=solid;strokeColor=default;fontSize=24;fontColor=#FFFFFF;fillColor=none;" parent="193" vertex="1">
                    <mxGeometry y="91.66666666666667" width="120.00000000000001" height="91.66666666666667" as="geometry"/>
                </mxCell>
                <mxCell id="197" value="" style="rounded=0;whiteSpace=wrap;html=1;fillStyle=solid;strokeColor=default;fontSize=24;fontColor=#FFFFFF;fillColor=none;" parent="193" vertex="1">
                    <mxGeometry y="275.83333333333337" width="120.00000000000001" height="91.66666666666667" as="geometry"/>
                </mxCell>
                <mxCell id="198" value="" style="rounded=0;whiteSpace=wrap;html=1;fillStyle=solid;strokeColor=default;fontSize=24;fontColor=#FFFFFF;fillColor=none;" parent="193" vertex="1">
                    <mxGeometry y="184.16666666666669" width="120.00000000000001" height="91.66666666666667" as="geometry"/>
                </mxCell>
                <mxCell id="199" value="" style="rounded=0;whiteSpace=wrap;html=1;fillStyle=solid;strokeColor=default;fontSize=24;fontColor=#FFFFFF;fillColor=none;" parent="193" vertex="1">
                    <mxGeometry y="367.5" width="120.00000000000001" height="91.66666666666667" as="geometry"/>
                </mxCell>
                <mxCell id="963" value="" style="rounded=1;whiteSpace=wrap;html=1;strokeColor=#3399FF;fontSize=24;fillColor=#7F00FF;" vertex="1" parent="193">
                    <mxGeometry x="10" y="91.67" width="110" height="120" as="geometry"/>
                </mxCell>
                <mxCell id="964" value="&lt;span style=&quot;font-size: 12px;&quot;&gt;Event (same day)&lt;/span&gt;" style="text;html=1;strokeColor=none;fillColor=none;align=center;verticalAlign=middle;whiteSpace=wrap;rounded=0;fontSize=24;" vertex="1" parent="193">
                    <mxGeometry x="10" y="91.67" width="100" height="30" as="geometry"/>
                </mxCell>
                <mxCell id="200" value="" style="group" parent="1" vertex="1" connectable="0">
                    <mxGeometry x="4250" y="3150" width="120" height="550" as="geometry"/>
                </mxCell>
                <mxCell id="201" value="" style="rounded=0;whiteSpace=wrap;html=1;fillStyle=solid;strokeColor=default;fontSize=24;fontColor=#000000;fillColor=none;" parent="200" vertex="1">
                    <mxGeometry width="120.00000000000001" height="550" as="geometry"/>
                </mxCell>
                <mxCell id="202" value="" style="rounded=0;whiteSpace=wrap;html=1;fillStyle=solid;strokeColor=default;fontSize=24;fontColor=#FFFFFF;fillColor=none;" parent="200" vertex="1">
                    <mxGeometry width="120.00000000000001" height="91.66666666666667" as="geometry"/>
                </mxCell>
                <mxCell id="203" value="" style="rounded=0;whiteSpace=wrap;html=1;fillStyle=solid;strokeColor=default;fontSize=24;fontColor=#FFFFFF;fillColor=none;" parent="200" vertex="1">
                    <mxGeometry y="91.66666666666667" width="120.00000000000001" height="91.66666666666667" as="geometry"/>
                </mxCell>
                <mxCell id="204" value="" style="rounded=0;whiteSpace=wrap;html=1;fillStyle=solid;strokeColor=default;fontSize=24;fontColor=#FFFFFF;fillColor=none;" parent="200" vertex="1">
                    <mxGeometry y="275.83333333333337" width="120.00000000000001" height="91.66666666666667" as="geometry"/>
                </mxCell>
                <mxCell id="205" value="" style="rounded=0;whiteSpace=wrap;html=1;fillStyle=solid;strokeColor=default;fontSize=24;fontColor=#FFFFFF;fillColor=none;" parent="200" vertex="1">
                    <mxGeometry y="184.16666666666669" width="120.00000000000001" height="91.66666666666667" as="geometry"/>
                </mxCell>
                <mxCell id="206" value="" style="rounded=0;whiteSpace=wrap;html=1;fillStyle=solid;strokeColor=default;fontSize=24;fontColor=#FFFFFF;fillColor=none;" parent="200" vertex="1">
                    <mxGeometry y="367.5" width="120.00000000000001" height="91.66666666666667" as="geometry"/>
                </mxCell>
                <mxCell id="232" value="" style="rounded=0;whiteSpace=wrap;html=1;" parent="1" vertex="1">
                    <mxGeometry x="5730" y="2917" width="1023.63" height="793" as="geometry"/>
                </mxCell>
                <mxCell id="418" value="" style="group" parent="232" vertex="1" connectable="0">
                    <mxGeometry y="100" width="1020" height="690" as="geometry"/>
                </mxCell>
                <mxCell id="406" value="" style="group" parent="418" vertex="1" connectable="0">
                    <mxGeometry x="874.1666666666666" width="145.83333333333331" height="690" as="geometry"/>
                </mxCell>
                <mxCell id="408" value="" style="rounded=0;whiteSpace=wrap;html=1;fillStyle=solid;strokeColor=default;fontSize=12;fontColor=#FFFFFF;fillColor=none;" parent="406" vertex="1">
                    <mxGeometry y="115" width="145.83333333333331" height="115" as="geometry"/>
                </mxCell>
                <mxCell id="409" value="" style="rounded=0;whiteSpace=wrap;html=1;fillStyle=solid;strokeColor=default;fontSize=12;fontColor=#FFFFFF;fillColor=none;" parent="406" vertex="1">
                    <mxGeometry y="230" width="145.83333333333331" height="115" as="geometry"/>
                </mxCell>
                <mxCell id="410" value="" style="rounded=0;whiteSpace=wrap;html=1;fillStyle=solid;strokeColor=default;fontSize=12;fontColor=#FFFFFF;fillColor=none;" parent="406" vertex="1">
                    <mxGeometry y="345" width="145.83333333333331" height="115" as="geometry"/>
                </mxCell>
                <mxCell id="411" value="" style="rounded=0;whiteSpace=wrap;html=1;fillStyle=solid;strokeColor=default;fontSize=12;fontColor=#FFFFFF;fillColor=none;" parent="406" vertex="1">
                    <mxGeometry y="460" width="145.83333333333331" height="115" as="geometry"/>
                </mxCell>
                <mxCell id="412" value="" style="rounded=0;whiteSpace=wrap;html=1;fillStyle=solid;strokeColor=default;fontSize=12;fontColor=#FFFFFF;fillColor=none;" parent="406" vertex="1">
                    <mxGeometry y="575" width="145.83333333333331" height="115" as="geometry"/>
                </mxCell>
                <mxCell id="371" value="" style="group" parent="418" vertex="1" connectable="0">
                    <mxGeometry x="144.99999999999997" width="145.83333333333331" height="690" as="geometry"/>
                </mxCell>
                <mxCell id="373" value="" style="rounded=0;whiteSpace=wrap;html=1;fillStyle=solid;strokeColor=default;fontSize=12;fontColor=#FFFFFF;fillColor=none;" parent="371" vertex="1">
                    <mxGeometry y="115" width="145.83333333333331" height="115" as="geometry"/>
                </mxCell>
                <mxCell id="374" value="" style="rounded=0;whiteSpace=wrap;html=1;fillStyle=solid;strokeColor=default;fontSize=12;fontColor=#FFFFFF;fillColor=none;" parent="371" vertex="1">
                    <mxGeometry y="230" width="145.83333333333331" height="115" as="geometry"/>
                </mxCell>
                <mxCell id="375" value="" style="rounded=0;whiteSpace=wrap;html=1;fillStyle=solid;strokeColor=default;fontSize=12;fontColor=#FFFFFF;fillColor=none;" parent="371" vertex="1">
                    <mxGeometry y="345" width="145.83333333333331" height="115" as="geometry"/>
                </mxCell>
                <mxCell id="376" value="" style="rounded=0;whiteSpace=wrap;html=1;fillStyle=solid;strokeColor=default;fontSize=12;fontColor=#FFFFFF;fillColor=none;" parent="371" vertex="1">
                    <mxGeometry y="460" width="145.83333333333331" height="115" as="geometry"/>
                </mxCell>
                <mxCell id="377" value="" style="rounded=0;whiteSpace=wrap;html=1;fillStyle=solid;strokeColor=default;fontSize=12;fontColor=#FFFFFF;fillColor=none;" parent="371" vertex="1">
                    <mxGeometry y="575" width="145.83333333333331" height="115" as="geometry"/>
                </mxCell>
                <mxCell id="982" value="&lt;span style=&quot;font-size: 12px;&quot;&gt;3&lt;br&gt;&lt;/span&gt;" style="text;html=1;strokeColor=none;fillColor=none;align=center;verticalAlign=middle;whiteSpace=wrap;rounded=0;fillStyle=solid;fontSize=24;fontColor=#FFFFFF;" vertex="1" parent="371">
                    <mxGeometry x="42.92000000000007" y="115" width="60" height="17" as="geometry"/>
                </mxCell>
                <mxCell id="378" value="" style="group" parent="418" vertex="1" connectable="0">
                    <mxGeometry x="290.8333333333333" width="291.6666666666669" height="690" as="geometry"/>
                </mxCell>
                <mxCell id="984" value="" style="ellipse;whiteSpace=wrap;html=1;aspect=fixed;strokeColor=#FFFFFF;fontSize=8;fillColor=#3333FF;" vertex="1" parent="378">
                    <mxGeometry x="60.42" y="115" width="25" height="25" as="geometry"/>
                </mxCell>
                <mxCell id="380" value="" style="rounded=0;whiteSpace=wrap;html=1;fillStyle=solid;strokeColor=default;fontSize=12;fontColor=#FFFFFF;fillColor=none;" parent="378" vertex="1">
                    <mxGeometry y="115" width="145.83333333333331" height="115" as="geometry"/>
                </mxCell>
                <mxCell id="381" value="" style="rounded=0;whiteSpace=wrap;html=1;fillStyle=solid;strokeColor=default;fontSize=12;fontColor=#FFFFFF;fillColor=none;" parent="378" vertex="1">
                    <mxGeometry y="230" width="145.83333333333331" height="115" as="geometry"/>
                </mxCell>
                <mxCell id="382" value="" style="rounded=0;whiteSpace=wrap;html=1;fillStyle=solid;strokeColor=default;fontSize=12;fontColor=#FFFFFF;fillColor=none;" parent="378" vertex="1">
                    <mxGeometry y="345" width="145.83333333333331" height="115" as="geometry"/>
                </mxCell>
                <mxCell id="383" value="" style="rounded=0;whiteSpace=wrap;html=1;fillStyle=solid;strokeColor=default;fontSize=12;fontColor=#FFFFFF;fillColor=none;" parent="378" vertex="1">
                    <mxGeometry y="460" width="145.83333333333331" height="115" as="geometry"/>
                </mxCell>
                <mxCell id="384" value="" style="rounded=0;whiteSpace=wrap;html=1;fillStyle=solid;strokeColor=default;fontSize=12;fontColor=#FFFFFF;fillColor=none;" parent="378" vertex="1">
                    <mxGeometry y="575" width="145.83333333333331" height="115" as="geometry"/>
                </mxCell>
                <mxCell id="385" value="" style="group" parent="378" vertex="1" connectable="0">
                    <mxGeometry x="145.83333333333363" width="145.83333333333331" height="690" as="geometry"/>
                </mxCell>
                <mxCell id="387" value="" style="rounded=0;whiteSpace=wrap;html=1;fillStyle=solid;strokeColor=default;fontSize=12;fontColor=#FFFFFF;fillColor=none;" parent="385" vertex="1">
                    <mxGeometry y="115" width="145.83333333333331" height="115" as="geometry"/>
                </mxCell>
                <mxCell id="388" value="" style="rounded=0;whiteSpace=wrap;html=1;fillStyle=solid;strokeColor=default;fontSize=12;fontColor=#FFFFFF;fillColor=none;" parent="385" vertex="1">
                    <mxGeometry y="230" width="145.83333333333331" height="115" as="geometry"/>
                </mxCell>
                <mxCell id="389" value="" style="rounded=0;whiteSpace=wrap;html=1;fillStyle=solid;strokeColor=default;fontSize=12;fontColor=#FFFFFF;fillColor=none;" parent="385" vertex="1">
                    <mxGeometry y="345" width="145.83333333333331" height="115" as="geometry"/>
                </mxCell>
                <mxCell id="390" value="" style="rounded=0;whiteSpace=wrap;html=1;fillStyle=solid;strokeColor=default;fontSize=12;fontColor=#FFFFFF;fillColor=none;" parent="385" vertex="1">
                    <mxGeometry y="460" width="145.83333333333331" height="115" as="geometry"/>
                </mxCell>
                <mxCell id="391" value="" style="rounded=0;whiteSpace=wrap;html=1;fillStyle=solid;strokeColor=default;fontSize=12;fontColor=#FFFFFF;fillColor=none;" parent="385" vertex="1">
                    <mxGeometry y="575" width="145.83333333333331" height="115" as="geometry"/>
                </mxCell>
                <mxCell id="983" value="&lt;span style=&quot;font-size: 12px;&quot;&gt;4&lt;br&gt;&lt;/span&gt;" style="text;html=1;strokeColor=none;fillColor=none;align=center;verticalAlign=middle;whiteSpace=wrap;rounded=0;fillStyle=solid;fontSize=24;fontColor=#FFFFFF;" vertex="1" parent="378">
                    <mxGeometry x="42.91666666666697" y="115" width="60" height="17" as="geometry"/>
                </mxCell>
                <mxCell id="392" value="" style="group" parent="418" vertex="1" connectable="0">
                    <mxGeometry x="582.4999999999999" width="145.83333333333331" height="690" as="geometry"/>
                </mxCell>
                <mxCell id="394" value="" style="rounded=0;whiteSpace=wrap;html=1;fillStyle=solid;strokeColor=default;fontSize=12;fontColor=#FFFFFF;fillColor=none;" parent="392" vertex="1">
                    <mxGeometry y="115" width="145.83333333333331" height="115" as="geometry"/>
                </mxCell>
                <mxCell id="395" value="" style="rounded=0;whiteSpace=wrap;html=1;fillStyle=solid;strokeColor=default;fontSize=12;fontColor=#FFFFFF;fillColor=none;" parent="392" vertex="1">
                    <mxGeometry y="230" width="145.83333333333331" height="115" as="geometry"/>
                </mxCell>
                <mxCell id="396" value="" style="rounded=0;whiteSpace=wrap;html=1;fillStyle=solid;strokeColor=default;fontSize=12;fontColor=#FFFFFF;fillColor=none;" parent="392" vertex="1">
                    <mxGeometry y="345" width="145.83333333333331" height="115" as="geometry"/>
                </mxCell>
                <mxCell id="397" value="" style="rounded=0;whiteSpace=wrap;html=1;fillStyle=solid;strokeColor=default;fontSize=12;fontColor=#FFFFFF;fillColor=none;" parent="392" vertex="1">
                    <mxGeometry y="460" width="145.83333333333331" height="115" as="geometry"/>
                </mxCell>
                <mxCell id="398" value="" style="rounded=0;whiteSpace=wrap;html=1;fillStyle=solid;strokeColor=default;fontSize=12;fontColor=#FFFFFF;fillColor=none;" parent="392" vertex="1">
                    <mxGeometry y="575" width="145.83333333333331" height="115" as="geometry"/>
                </mxCell>
                <mxCell id="399" value="" style="group" parent="418" vertex="1" connectable="0">
                    <mxGeometry x="728.3333333333333" width="145.83333333333331" height="690" as="geometry"/>
                </mxCell>
                <mxCell id="401" value="" style="rounded=0;whiteSpace=wrap;html=1;fillStyle=solid;strokeColor=default;fontSize=12;fontColor=#FFFFFF;fillColor=none;" parent="399" vertex="1">
                    <mxGeometry y="115" width="145.83333333333331" height="115" as="geometry"/>
                </mxCell>
                <mxCell id="402" value="" style="rounded=0;whiteSpace=wrap;html=1;fillStyle=solid;strokeColor=default;fontSize=12;fontColor=#FFFFFF;fillColor=none;" parent="399" vertex="1">
                    <mxGeometry y="230" width="145.83333333333331" height="115" as="geometry"/>
                </mxCell>
                <mxCell id="403" value="" style="rounded=0;whiteSpace=wrap;html=1;fillStyle=solid;strokeColor=default;fontSize=12;fontColor=#FFFFFF;fillColor=none;" parent="399" vertex="1">
                    <mxGeometry y="345" width="145.83333333333331" height="115" as="geometry"/>
                </mxCell>
                <mxCell id="404" value="" style="rounded=0;whiteSpace=wrap;html=1;fillStyle=solid;strokeColor=default;fontSize=12;fontColor=#FFFFFF;fillColor=none;" parent="399" vertex="1">
                    <mxGeometry y="460" width="145.83333333333331" height="115" as="geometry"/>
                </mxCell>
                <mxCell id="405" value="" style="rounded=0;whiteSpace=wrap;html=1;fillStyle=solid;strokeColor=default;fontSize=12;fontColor=#FFFFFF;fillColor=none;" parent="399" vertex="1">
                    <mxGeometry y="575" width="145.83333333333331" height="115" as="geometry"/>
                </mxCell>
                <mxCell id="417" value="" style="group" parent="418" vertex="1" connectable="0">
                    <mxGeometry width="144.99999999999997" height="690" as="geometry"/>
                </mxCell>
                <mxCell id="365" value="" style="rounded=0;whiteSpace=wrap;html=1;fillStyle=solid;strokeColor=default;fontSize=12;fontColor=#FFFFFF;fillColor=none;" parent="417" vertex="1">
                    <mxGeometry y="115" width="144.99999999999997" height="115" as="geometry"/>
                </mxCell>
                <mxCell id="366" value="" style="rounded=0;whiteSpace=wrap;html=1;fillStyle=solid;strokeColor=default;fontSize=12;fontColor=#FFFFFF;fillColor=none;" parent="417" vertex="1">
                    <mxGeometry y="230" width="144.99999999999997" height="115" as="geometry"/>
                </mxCell>
                <mxCell id="367" value="" style="rounded=0;whiteSpace=wrap;html=1;fillStyle=solid;strokeColor=default;fontSize=12;fontColor=#FFFFFF;fillColor=none;" parent="417" vertex="1">
                    <mxGeometry y="345" width="144.99999999999997" height="115" as="geometry"/>
                </mxCell>
                <mxCell id="368" value="" style="rounded=0;whiteSpace=wrap;html=1;fillStyle=solid;strokeColor=default;fontSize=12;fontColor=#FFFFFF;fillColor=none;" parent="417" vertex="1">
                    <mxGeometry y="460" width="144.99999999999997" height="115" as="geometry"/>
                </mxCell>
                <mxCell id="369" value="" style="rounded=0;whiteSpace=wrap;html=1;fillStyle=solid;strokeColor=default;fontSize=12;fontColor=#FFFFFF;fillColor=none;" parent="417" vertex="1">
                    <mxGeometry y="575" width="144.99999999999997" height="115" as="geometry"/>
                </mxCell>
                <mxCell id="432" value="&lt;span style=&quot;font-size: 12px;&quot;&gt;30&lt;/span&gt;" style="text;html=1;strokeColor=none;fillColor=none;align=center;verticalAlign=middle;whiteSpace=wrap;rounded=0;fillStyle=solid;fontSize=24;fontColor=#FFFFFF;" parent="417" vertex="1">
                    <mxGeometry x="42.5" y="583" width="60" height="17" as="geometry"/>
                </mxCell>
                <mxCell id="980" value="&lt;ul style=&quot;font-size: 8px;&quot;&gt;&lt;br&gt;&lt;li&gt;10:30 am Event 1&lt;/li&gt;&lt;li&gt;12:00 pm Event 2&lt;/li&gt;&lt;/ul&gt;" style="text;strokeColor=none;fillColor=none;html=1;whiteSpace=wrap;verticalAlign=middle;overflow=hidden;fontSize=12;" vertex="1" parent="417">
                    <mxGeometry y="147" width="120" height="83" as="geometry"/>
                </mxCell>
                <mxCell id="981" value="&lt;span style=&quot;font-size: 12px;&quot;&gt;2&lt;br&gt;&lt;/span&gt;" style="text;html=1;strokeColor=none;fillColor=none;align=center;verticalAlign=middle;whiteSpace=wrap;rounded=0;fillStyle=solid;fontSize=24;fontColor=#FFFFFF;" vertex="1" parent="417">
                    <mxGeometry x="42.5" y="115" width="60" height="17" as="geometry"/>
                </mxCell>
                <mxCell id="802" value="" style="group" vertex="1" connectable="0" parent="232">
                    <mxGeometry y="0.75" width="1020" height="98" as="geometry"/>
                </mxCell>
                <mxCell id="803" value="" style="ellipse;whiteSpace=wrap;html=1;aspect=fixed;fillStyle=solid;strokeColor=default;fontSize=24;fontColor=#FFFFFF;fillColor=none;" vertex="1" parent="802">
                    <mxGeometry x="889" y="5" width="90" height="90" as="geometry"/>
                </mxCell>
                <mxCell id="804" value="" style="rounded=1;whiteSpace=wrap;html=1;fillStyle=solid;strokeColor=default;fontSize=24;fontColor=#000000;fillColor=none;" vertex="1" parent="802">
                    <mxGeometry width="1020" height="98" as="geometry"/>
                </mxCell>
                <mxCell id="805" value="&lt;font style=&quot;font-size: 32px;&quot;&gt;M&lt;/font&gt;" style="text;html=1;strokeColor=none;fillColor=none;align=center;verticalAlign=middle;whiteSpace=wrap;rounded=0;fillStyle=solid;fontSize=24;fontColor=#FFFFFF;" vertex="1" parent="802">
                    <mxGeometry x="904" y="23.75" width="60" height="60" as="geometry"/>
                </mxCell>
                <mxCell id="806" value="" style="rounded=1;whiteSpace=wrap;html=1;fillStyle=solid;strokeColor=default;fontSize=48;fontColor=#FFFFFF;fillColor=none;" vertex="1" parent="802">
                    <mxGeometry y="10" width="220" height="80" as="geometry"/>
                </mxCell>
                <mxCell id="807" value="" style="rounded=1;whiteSpace=wrap;html=1;fillStyle=solid;strokeColor=default;fontSize=48;fontColor=#FFFFFF;fillColor=none;" vertex="1" parent="802">
                    <mxGeometry x="220" y="10" width="220" height="80" as="geometry"/>
                </mxCell>
                <mxCell id="808" value="" style="rounded=1;whiteSpace=wrap;html=1;fillStyle=solid;strokeColor=default;fontSize=48;fontColor=#FFFFFF;fillColor=none;" vertex="1" parent="802">
                    <mxGeometry x="440" y="10" width="205" height="80" as="geometry"/>
                </mxCell>
                <mxCell id="809" value="Today" style="text;html=1;strokeColor=none;fillColor=none;align=center;verticalAlign=middle;whiteSpace=wrap;rounded=0;fillStyle=solid;fontSize=32;fontColor=#FFFFFF;" vertex="1" parent="802">
                    <mxGeometry x="25" y="28" width="170" height="44" as="geometry"/>
                </mxCell>
                <mxCell id="810" value="" style="triangle;whiteSpace=wrap;html=1;fillStyle=solid;strokeColor=default;fontSize=32;fontColor=#FFFFFF;fillColor=#FFFFFF;direction=west;" vertex="1" parent="802">
                    <mxGeometry x="275" y="37.25" width="20" height="23.5" as="geometry"/>
                </mxCell>
                <mxCell id="811" value="" style="triangle;whiteSpace=wrap;html=1;fillStyle=solid;strokeColor=default;fontSize=32;fontColor=#FFFFFF;fillColor=#FFFFFF;direction=east;" vertex="1" parent="802">
                    <mxGeometry x="345" y="37.25" width="20" height="23.5" as="geometry"/>
                </mxCell>
                <mxCell id="812" value="" style="triangle;whiteSpace=wrap;html=1;fillStyle=solid;strokeColor=default;fontSize=32;fontColor=#FFFFFF;fillColor=#FFFFFF;direction=south;" vertex="1" parent="802">
                    <mxGeometry x="615" y="46.75" width="23.5" height="14" as="geometry"/>
                </mxCell>
                <mxCell id="813" value="&lt;font style=&quot;font-size: 24px;&quot;&gt;June, 3, 2024&lt;/font&gt;" style="text;html=1;strokeColor=none;fillColor=none;align=left;verticalAlign=middle;whiteSpace=wrap;rounded=0;fillStyle=solid;fontSize=32;fontColor=#FFFFFF;" vertex="1" parent="802">
                    <mxGeometry x="455" y="34" width="150" height="30" as="geometry"/>
                </mxCell>
                <mxCell id="814" value="" style="rounded=1;whiteSpace=wrap;html=1;fontSize=32;" vertex="1" parent="802">
                    <mxGeometry x="655" y="9.5" width="190" height="81" as="geometry"/>
                </mxCell>
                <mxCell id="815" value="&lt;span style=&quot;font-size: 24px;&quot;&gt;Month&lt;br&gt;&lt;/span&gt;" style="text;html=1;strokeColor=none;fillColor=none;align=center;verticalAlign=middle;whiteSpace=wrap;rounded=0;fillStyle=solid;fontSize=32;fontColor=#FFFFFF;" vertex="1" parent="802">
                    <mxGeometry x="675" y="35" width="150" height="30" as="geometry"/>
                </mxCell>
                <mxCell id="1058" value="" style="rounded=0;whiteSpace=wrap;html=1;fillStyle=solid;strokeColor=default;fontSize=24;fontColor=#FFFFFF;fillColor=none;container=0;" vertex="1" parent="232">
                    <mxGeometry x="2.45" y="100" width="1021.18" height="113" as="geometry"/>
                </mxCell>
                <mxCell id="1059" value="" style="group" vertex="1" connectable="0" parent="232">
                    <mxGeometry x="2.4535294117646913" y="105" width="145.88235294117646" height="100" as="geometry"/>
                </mxCell>
                <mxCell id="1060" value="" style="rounded=1;whiteSpace=wrap;html=1;fillStyle=solid;strokeColor=default;fontSize=64;fontColor=#FFFFFF;fillColor=none;" vertex="1" parent="1059">
                    <mxGeometry width="145.88235294117646" height="100" as="geometry"/>
                </mxCell>
                <mxCell id="1061" value="" style="group" vertex="1" connectable="0" parent="1060">
                    <mxGeometry x="46.17980392156863" y="10" width="66.86274509803921" height="50" as="geometry"/>
                </mxCell>
                <mxCell id="1062" value="" style="ellipse;whiteSpace=wrap;html=1;aspect=fixed;rounded=0;strokeColor=default;fontSize=8;fillColor=none;" vertex="1" parent="1061">
                    <mxGeometry width="49.2" height="49.2" as="geometry"/>
                </mxCell>
                <mxCell id="1063" value="&lt;p style=&quot;line-height: 30%;&quot;&gt;&lt;font style=&quot;font-size: 16px;&quot;&gt;Sun&lt;br&gt;2&lt;/font&gt;&lt;/p&gt;" style="text;html=1;strokeColor=none;fillColor=none;align=center;verticalAlign=middle;whiteSpace=wrap;rounded=0;fillStyle=solid;fontSize=32;fontColor=#FFFFFF;" vertex="1" parent="1061">
                    <mxGeometry x="1.3703676470583375" y="8.97500000000011" width="47.8319362745098" height="31.25" as="geometry"/>
                </mxCell>
                <mxCell id="872" value="" style="group" vertex="1" connectable="0" parent="1060">
                    <mxGeometry x="-2.4535294117648663" y="8" width="50" height="47" as="geometry"/>
                </mxCell>
                <mxCell id="873" value="" style="ellipse;whiteSpace=wrap;html=1;aspect=fixed;fillStyle=solid;strokeColor=default;fontSize=24;fontColor=#FFFFFF;fillColor=none;" vertex="1" parent="872">
                    <mxGeometry x="5" y="7" width="40" height="40" as="geometry"/>
                </mxCell>
                <mxCell id="874" value="&lt;p style=&quot;line-height: 120%;&quot;&gt;&lt;font style=&quot;font-size: 24px;&quot;&gt;+&lt;/font&gt;&lt;/p&gt;" style="text;html=1;strokeColor=none;fillColor=none;align=center;verticalAlign=middle;whiteSpace=wrap;rounded=0;fillStyle=solid;fontSize=32;fontColor=#FFFFFF;" vertex="1" parent="872">
                    <mxGeometry x="10" y="12.379999999999999" width="30" height="22.24" as="geometry"/>
                </mxCell>
                <mxCell id="1064" value="" style="group" vertex="1" connectable="0" parent="232">
                    <mxGeometry x="148.3358823529412" y="105" width="145.88235294117646" height="100" as="geometry"/>
                </mxCell>
                <mxCell id="1065" value="" style="rounded=1;whiteSpace=wrap;html=1;fillStyle=solid;strokeColor=default;fontSize=64;fontColor=#FFFFFF;fillColor=none;" vertex="1" parent="1064">
                    <mxGeometry width="145.88235294117646" height="100" as="geometry"/>
                </mxCell>
                <mxCell id="1066" value="" style="group" vertex="1" connectable="0" parent="1064">
                    <mxGeometry x="6.07843137254902" y="70" width="133.72549019607843" height="20" as="geometry"/>
                </mxCell>
                <mxCell id="1067" value="" style="rounded=1;whiteSpace=wrap;html=1;fontSize=36;fillColor=#3399FF;" vertex="1" parent="1066">
                    <mxGeometry width="133.72549019607843" height="20" as="geometry"/>
                </mxCell>
                <mxCell id="1068" value="&lt;font style=&quot;font-size: 9px;&quot;&gt;All day event or task&lt;/font&gt;" style="text;html=1;strokeColor=none;fillColor=none;align=left;verticalAlign=middle;whiteSpace=wrap;rounded=0;fontSize=24;" vertex="1" parent="1066">
                    <mxGeometry width="119.43915032679739" height="15" as="geometry"/>
                </mxCell>
                <mxCell id="1069" value="" style="group" vertex="1" connectable="0" parent="1064">
                    <mxGeometry x="39.509803921568626" y="10" width="66.86274509803921" height="50" as="geometry"/>
                </mxCell>
                <mxCell id="1070" value="" style="ellipse;whiteSpace=wrap;html=1;aspect=fixed;rounded=0;strokeColor=default;fontSize=8;fillColor=none;" vertex="1" parent="1069">
                    <mxGeometry width="49.2" height="49.2" as="geometry"/>
                </mxCell>
                <mxCell id="1071" value="&lt;p style=&quot;line-height: 30%;&quot;&gt;&lt;span style=&quot;font-size: 16px;&quot;&gt;Mon 3&lt;/span&gt;&lt;/p&gt;" style="text;html=1;strokeColor=none;fillColor=none;align=center;verticalAlign=middle;whiteSpace=wrap;rounded=0;fillStyle=solid;fontSize=32;fontColor=#FFFFFF;" vertex="1" parent="1069">
                    <mxGeometry x="4.359999999999999" y="9.370000000000001" width="40.48" height="31.25" as="geometry"/>
                </mxCell>
                <mxCell id="1072" value="" style="group" vertex="1" connectable="0" parent="232">
                    <mxGeometry x="294.2182352941177" y="105" width="145.88235294117646" height="100" as="geometry"/>
                </mxCell>
                <mxCell id="1073" value="" style="rounded=1;whiteSpace=wrap;html=1;fillStyle=solid;strokeColor=default;fontSize=64;fontColor=#FFFFFF;fillColor=none;" vertex="1" parent="1072">
                    <mxGeometry width="145.88235294117646" height="100" as="geometry"/>
                </mxCell>
                <mxCell id="1074" value="" style="group" vertex="1" connectable="0" parent="1072">
                    <mxGeometry x="45.58823529411765" y="10" width="66.86274509803921" height="50" as="geometry"/>
                </mxCell>
                <mxCell id="1075" value="" style="ellipse;whiteSpace=wrap;html=1;aspect=fixed;rounded=0;strokeColor=default;fontSize=8;fillColor=#3333FF;" vertex="1" parent="1074">
                    <mxGeometry width="49.2" height="49.2" as="geometry"/>
                </mxCell>
                <mxCell id="1076" value="&lt;p style=&quot;line-height: 30%;&quot;&gt;&lt;font style=&quot;font-size: 16px;&quot;&gt;Tue&lt;br&gt;4&lt;/font&gt;&lt;/p&gt;" style="text;html=1;strokeColor=none;fillColor=none;align=center;verticalAlign=middle;whiteSpace=wrap;rounded=0;fillStyle=solid;fontSize=32;fontColor=#FFFFFF;" vertex="1" parent="1074">
                    <mxGeometry x="7.840000000000001" y="8.98" width="33.52" height="31.25" as="geometry"/>
                </mxCell>
                <mxCell id="1077" value="" style="group" vertex="1" connectable="0" parent="232">
                    <mxGeometry x="440.10058823529414" y="105" width="182.3529411764706" height="100" as="geometry"/>
                </mxCell>
                <mxCell id="1078" value="" style="rounded=1;whiteSpace=wrap;html=1;fillStyle=solid;strokeColor=default;fontSize=64;fontColor=#FFFFFF;fillColor=none;" vertex="1" parent="1077">
                    <mxGeometry width="145.88235294117646" height="100" as="geometry"/>
                </mxCell>
                <mxCell id="1079" value="" style="group" vertex="1" connectable="0" parent="1078">
                    <mxGeometry x="42.54901960784315" y="10" width="66.86274509803921" height="50" as="geometry"/>
                </mxCell>
                <mxCell id="1080" value="" style="ellipse;whiteSpace=wrap;html=1;aspect=fixed;rounded=0;strokeColor=default;fontSize=8;fillColor=none;" vertex="1" parent="1079">
                    <mxGeometry width="49.2" height="49.2" as="geometry"/>
                </mxCell>
                <mxCell id="1081" value="&lt;p style=&quot;line-height: 30%;&quot;&gt;&lt;span style=&quot;font-size: 16px;&quot;&gt;Wed 5&lt;/span&gt;&lt;/p&gt;" style="text;html=1;strokeColor=none;fillColor=none;align=center;verticalAlign=middle;whiteSpace=wrap;rounded=0;fillStyle=solid;fontSize=32;fontColor=#FFFFFF;" vertex="1" parent="1079">
                    <mxGeometry x="7.840000000000001" y="9.370000000000001" width="33.52" height="31.25" as="geometry"/>
                </mxCell>
                <mxCell id="1082" value="" style="group" vertex="1" connectable="0" parent="232">
                    <mxGeometry x="585.9829411764705" y="105" width="145.88235294117646" height="100" as="geometry"/>
                </mxCell>
                <mxCell id="1083" value="" style="rounded=1;whiteSpace=wrap;html=1;fillStyle=solid;strokeColor=default;fontSize=64;fontColor=#FFFFFF;fillColor=none;" vertex="1" parent="1082">
                    <mxGeometry width="145.88235294117646" height="100" as="geometry"/>
                </mxCell>
                <mxCell id="1084" value="" style="group" vertex="1" connectable="0" parent="1082">
                    <mxGeometry x="46.123137254901486" y="9.5" width="66.86274509803921" height="50" as="geometry"/>
                </mxCell>
                <mxCell id="1085" value="" style="ellipse;whiteSpace=wrap;html=1;aspect=fixed;rounded=0;strokeColor=default;fontSize=8;fillColor=none;" vertex="1" parent="1084">
                    <mxGeometry width="49.2" height="49.2" as="geometry"/>
                </mxCell>
                <mxCell id="1086" value="&lt;p style=&quot;line-height: 30%;&quot;&gt;&lt;span style=&quot;font-size: 16px;&quot;&gt;Thu 6&lt;/span&gt;&lt;/p&gt;" style="text;html=1;strokeColor=none;fillColor=none;align=center;verticalAlign=middle;whiteSpace=wrap;rounded=0;fillStyle=solid;fontSize=32;fontColor=#FFFFFF;" vertex="1" parent="1084">
                    <mxGeometry x="6.48" y="9.88" width="33.52" height="31.25" as="geometry"/>
                </mxCell>
                <mxCell id="1087" value="" style="group" vertex="1" connectable="0" parent="232">
                    <mxGeometry x="731.8652941176472" y="105" width="161.078431372549" height="100" as="geometry"/>
                </mxCell>
                <mxCell id="1088" value="" style="rounded=1;whiteSpace=wrap;html=1;fillStyle=solid;strokeColor=default;fontSize=64;fontColor=#FFFFFF;fillColor=none;" vertex="1" parent="1087">
                    <mxGeometry width="145.88235294117646" height="100" as="geometry"/>
                </mxCell>
                <mxCell id="1089" value="" style="ellipse;whiteSpace=wrap;html=1;aspect=fixed;rounded=0;strokeColor=default;fontSize=8;fillColor=none;" vertex="1" parent="1087">
                    <mxGeometry x="39.50980392156862" y="10" width="49.2" height="49.2" as="geometry"/>
                </mxCell>
                <mxCell id="1090" value="&lt;p style=&quot;line-height: 30%;&quot;&gt;&lt;span style=&quot;font-size: 16px;&quot;&gt;Fri&amp;nbsp; &amp;nbsp;7&lt;/span&gt;&lt;/p&gt;" style="text;html=1;strokeColor=none;fillColor=none;align=center;verticalAlign=middle;whiteSpace=wrap;rounded=0;fillStyle=solid;fontSize=32;fontColor=#FFFFFF;" vertex="1" parent="1087">
                    <mxGeometry x="45.99" y="19.38" width="34.01" height="31.25" as="geometry"/>
                </mxCell>
                <mxCell id="1095" value="" style="rounded=1;whiteSpace=wrap;html=1;fillStyle=solid;strokeColor=default;fontSize=64;fontColor=#FFFFFF;fillColor=none;" vertex="1" parent="232">
                    <mxGeometry x="877.7476470588235" y="105" width="145.88235294117646" height="100" as="geometry"/>
                </mxCell>
                <mxCell id="1096" value="" style="ellipse;whiteSpace=wrap;html=1;aspect=fixed;rounded=0;strokeColor=default;fontSize=8;fillColor=none;" vertex="1" parent="232">
                    <mxGeometry x="917.2574509803922" y="115" width="49.2" height="49.2" as="geometry"/>
                </mxCell>
                <mxCell id="1097" value="&lt;p style=&quot;line-height: 30%;&quot;&gt;&lt;span style=&quot;font-size: 16px;&quot;&gt;Sat 8&lt;/span&gt;&lt;/p&gt;" style="text;html=1;strokeColor=none;fillColor=none;align=center;verticalAlign=middle;whiteSpace=wrap;rounded=0;fillStyle=solid;fontSize=32;fontColor=#FFFFFF;" vertex="1" parent="232">
                    <mxGeometry x="926.9100000000001" y="123.97999999999999" width="29.89" height="31.25" as="geometry"/>
                </mxCell>
                <mxCell id="249" style="edgeStyle=none;html=1;exitX=0.5;exitY=1;exitDx=0;exitDy=0;entryX=0.5;entryY=0;entryDx=0;entryDy=0;fontSize=32;fontColor=#FFFFFF;" parent="1" source="250" edge="1">
                    <mxGeometry relative="1" as="geometry">
                        <mxPoint x="6240" y="2917" as="targetPoint"/>
                    </mxGeometry>
                </mxCell>
                <mxCell id="250" value="" style="rhombus;whiteSpace=wrap;html=1;fillStyle=solid;strokeColor=default;fontSize=32;fontColor=#FFFFFF;fillColor=default;" parent="1" vertex="1">
                    <mxGeometry x="6042.5" y="2200" width="395" height="350" as="geometry"/>
                </mxCell>
                <mxCell id="251" value="Month" style="text;html=1;strokeColor=none;fillColor=none;align=center;verticalAlign=middle;whiteSpace=wrap;rounded=0;fillStyle=solid;fontSize=48;fontColor=#FFFFFF;" parent="1" vertex="1">
                    <mxGeometry x="6147.5" y="2310" width="185" height="130" as="geometry"/>
                </mxCell>
                <mxCell id="663" value="" style="group" vertex="1" connectable="0" parent="1">
                    <mxGeometry x="6250" y="1350" width="280" height="330" as="geometry"/>
                </mxCell>
                <mxCell id="605" value="" style="group" parent="663" vertex="1" connectable="0">
                    <mxGeometry y="30" width="40" height="300" as="geometry"/>
                </mxCell>
                <mxCell id="597" value="Sun" style="rounded=0;whiteSpace=wrap;html=1;" parent="605" vertex="1">
                    <mxGeometry width="40" height="20" as="geometry"/>
                </mxCell>
                <mxCell id="599" value="" style="whiteSpace=wrap;html=1;aspect=fixed;" parent="605" vertex="1">
                    <mxGeometry y="20" width="40" height="40" as="geometry"/>
                </mxCell>
                <mxCell id="600" value="" style="whiteSpace=wrap;html=1;aspect=fixed;" parent="605" vertex="1">
                    <mxGeometry y="66.66666666666666" width="40" height="40" as="geometry"/>
                </mxCell>
                <mxCell id="601" value="" style="whiteSpace=wrap;html=1;aspect=fixed;" parent="605" vertex="1">
                    <mxGeometry y="113.33333333333333" width="40" height="40" as="geometry"/>
                </mxCell>
                <mxCell id="602" value="" style="whiteSpace=wrap;html=1;aspect=fixed;" parent="605" vertex="1">
                    <mxGeometry y="160" width="40" height="40" as="geometry"/>
                </mxCell>
                <mxCell id="603" value="" style="whiteSpace=wrap;html=1;aspect=fixed;" parent="605" vertex="1">
                    <mxGeometry y="206.66666666666666" width="40" height="40" as="geometry"/>
                </mxCell>
                <mxCell id="604" value="" style="whiteSpace=wrap;html=1;aspect=fixed;" parent="605" vertex="1">
                    <mxGeometry y="253.33333333333331" width="40" height="40" as="geometry"/>
                </mxCell>
                <mxCell id="609" value="" style="group" parent="663" vertex="1" connectable="0">
                    <mxGeometry x="40" y="30" width="40" height="300" as="geometry"/>
                </mxCell>
                <mxCell id="610" value="Mon" style="rounded=0;whiteSpace=wrap;html=1;" parent="609" vertex="1">
                    <mxGeometry width="40" height="20" as="geometry"/>
                </mxCell>
                <mxCell id="611" value="" style="whiteSpace=wrap;html=1;aspect=fixed;" parent="609" vertex="1">
                    <mxGeometry y="20" width="40" height="40" as="geometry"/>
                </mxCell>
                <mxCell id="612" value="" style="whiteSpace=wrap;html=1;aspect=fixed;" parent="609" vertex="1">
                    <mxGeometry y="66.66666666666666" width="40" height="40" as="geometry"/>
                </mxCell>
                <mxCell id="613" value="" style="whiteSpace=wrap;html=1;aspect=fixed;" parent="609" vertex="1">
                    <mxGeometry y="113.33333333333333" width="40" height="40" as="geometry"/>
                </mxCell>
                <mxCell id="614" value="" style="whiteSpace=wrap;html=1;aspect=fixed;" parent="609" vertex="1">
                    <mxGeometry y="160" width="40" height="40" as="geometry"/>
                </mxCell>
                <mxCell id="615" value="" style="whiteSpace=wrap;html=1;aspect=fixed;" parent="609" vertex="1">
                    <mxGeometry y="206.66666666666666" width="40" height="40" as="geometry"/>
                </mxCell>
                <mxCell id="616" value="" style="whiteSpace=wrap;html=1;aspect=fixed;" parent="609" vertex="1">
                    <mxGeometry y="253.33333333333331" width="40" height="40" as="geometry"/>
                </mxCell>
                <mxCell id="617" value="" style="group" parent="663" vertex="1" connectable="0">
                    <mxGeometry x="80" y="30" width="40" height="300" as="geometry"/>
                </mxCell>
                <mxCell id="618" value="Tue" style="rounded=0;whiteSpace=wrap;html=1;" parent="617" vertex="1">
                    <mxGeometry width="40" height="20" as="geometry"/>
                </mxCell>
                <mxCell id="619" value="" style="whiteSpace=wrap;html=1;aspect=fixed;" parent="617" vertex="1">
                    <mxGeometry y="20" width="40" height="40" as="geometry"/>
                </mxCell>
                <mxCell id="620" value="" style="whiteSpace=wrap;html=1;aspect=fixed;" parent="617" vertex="1">
                    <mxGeometry y="66.66666666666666" width="40" height="40" as="geometry"/>
                </mxCell>
                <mxCell id="621" value="" style="whiteSpace=wrap;html=1;aspect=fixed;" parent="617" vertex="1">
                    <mxGeometry y="113.33333333333333" width="40" height="40" as="geometry"/>
                </mxCell>
                <mxCell id="622" value="" style="whiteSpace=wrap;html=1;aspect=fixed;" parent="617" vertex="1">
                    <mxGeometry y="160" width="40" height="40" as="geometry"/>
                </mxCell>
                <mxCell id="623" value="" style="whiteSpace=wrap;html=1;aspect=fixed;" parent="617" vertex="1">
                    <mxGeometry y="206.66666666666666" width="40" height="40" as="geometry"/>
                </mxCell>
                <mxCell id="624" value="" style="whiteSpace=wrap;html=1;aspect=fixed;" parent="617" vertex="1">
                    <mxGeometry y="253.33333333333331" width="40" height="40" as="geometry"/>
                </mxCell>
                <mxCell id="625" value="" style="group" parent="663" vertex="1" connectable="0">
                    <mxGeometry x="120" y="30" width="40" height="300" as="geometry"/>
                </mxCell>
                <mxCell id="626" value="Wed" style="rounded=0;whiteSpace=wrap;html=1;" parent="625" vertex="1">
                    <mxGeometry width="40" height="20" as="geometry"/>
                </mxCell>
                <mxCell id="627" value="" style="whiteSpace=wrap;html=1;aspect=fixed;" parent="625" vertex="1">
                    <mxGeometry y="20" width="40" height="40" as="geometry"/>
                </mxCell>
                <mxCell id="628" value="" style="whiteSpace=wrap;html=1;aspect=fixed;" parent="625" vertex="1">
                    <mxGeometry y="66.66666666666666" width="40" height="40" as="geometry"/>
                </mxCell>
                <mxCell id="629" value="" style="whiteSpace=wrap;html=1;aspect=fixed;" parent="625" vertex="1">
                    <mxGeometry y="113.33333333333333" width="40" height="40" as="geometry"/>
                </mxCell>
                <mxCell id="630" value="" style="whiteSpace=wrap;html=1;aspect=fixed;" parent="625" vertex="1">
                    <mxGeometry y="160" width="40" height="40" as="geometry"/>
                </mxCell>
                <mxCell id="631" value="" style="whiteSpace=wrap;html=1;aspect=fixed;" parent="625" vertex="1">
                    <mxGeometry y="206.66666666666666" width="40" height="40" as="geometry"/>
                </mxCell>
                <mxCell id="632" value="" style="whiteSpace=wrap;html=1;aspect=fixed;" parent="625" vertex="1">
                    <mxGeometry y="253.33333333333331" width="40" height="40" as="geometry"/>
                </mxCell>
                <mxCell id="633" value="" style="group" parent="663" vertex="1" connectable="0">
                    <mxGeometry x="160" y="30" width="40" height="300" as="geometry"/>
                </mxCell>
                <mxCell id="634" value="Thu" style="rounded=0;whiteSpace=wrap;html=1;" parent="633" vertex="1">
                    <mxGeometry width="40" height="20" as="geometry"/>
                </mxCell>
                <mxCell id="635" value="" style="whiteSpace=wrap;html=1;aspect=fixed;" parent="633" vertex="1">
                    <mxGeometry y="20" width="40" height="40" as="geometry"/>
                </mxCell>
                <mxCell id="636" value="" style="whiteSpace=wrap;html=1;aspect=fixed;" parent="633" vertex="1">
                    <mxGeometry y="66.66666666666666" width="40" height="40" as="geometry"/>
                </mxCell>
                <mxCell id="637" value="" style="whiteSpace=wrap;html=1;aspect=fixed;" parent="633" vertex="1">
                    <mxGeometry y="113.33333333333333" width="40" height="40" as="geometry"/>
                </mxCell>
                <mxCell id="638" value="" style="whiteSpace=wrap;html=1;aspect=fixed;" parent="633" vertex="1">
                    <mxGeometry y="160" width="40" height="40" as="geometry"/>
                </mxCell>
                <mxCell id="639" value="" style="whiteSpace=wrap;html=1;aspect=fixed;" parent="633" vertex="1">
                    <mxGeometry y="206.66666666666666" width="40" height="40" as="geometry"/>
                </mxCell>
                <mxCell id="640" value="" style="whiteSpace=wrap;html=1;aspect=fixed;" parent="633" vertex="1">
                    <mxGeometry y="253.33333333333331" width="40" height="40" as="geometry"/>
                </mxCell>
                <mxCell id="641" value="" style="group" parent="663" vertex="1" connectable="0">
                    <mxGeometry x="200" y="30" width="40" height="300" as="geometry"/>
                </mxCell>
                <mxCell id="642" value="Fri" style="rounded=0;whiteSpace=wrap;html=1;" parent="641" vertex="1">
                    <mxGeometry width="40" height="20" as="geometry"/>
                </mxCell>
                <mxCell id="643" value="" style="whiteSpace=wrap;html=1;aspect=fixed;" parent="641" vertex="1">
                    <mxGeometry y="20" width="40" height="40" as="geometry"/>
                </mxCell>
                <mxCell id="644" value="" style="whiteSpace=wrap;html=1;aspect=fixed;" parent="641" vertex="1">
                    <mxGeometry y="66.66666666666666" width="40" height="40" as="geometry"/>
                </mxCell>
                <mxCell id="645" value="" style="whiteSpace=wrap;html=1;aspect=fixed;" parent="641" vertex="1">
                    <mxGeometry y="113.33333333333333" width="40" height="40" as="geometry"/>
                </mxCell>
                <mxCell id="646" value="" style="whiteSpace=wrap;html=1;aspect=fixed;" parent="641" vertex="1">
                    <mxGeometry y="160" width="40" height="40" as="geometry"/>
                </mxCell>
                <mxCell id="647" value="" style="whiteSpace=wrap;html=1;aspect=fixed;" parent="641" vertex="1">
                    <mxGeometry y="206.66666666666666" width="40" height="40" as="geometry"/>
                </mxCell>
                <mxCell id="648" value="" style="whiteSpace=wrap;html=1;aspect=fixed;" parent="641" vertex="1">
                    <mxGeometry y="253.33333333333331" width="40" height="40" as="geometry"/>
                </mxCell>
                <mxCell id="649" value="" style="group" parent="663" vertex="1" connectable="0">
                    <mxGeometry x="240" y="30" width="40" height="300" as="geometry"/>
                </mxCell>
                <mxCell id="650" value="Sat" style="rounded=0;whiteSpace=wrap;html=1;" parent="649" vertex="1">
                    <mxGeometry width="40" height="20" as="geometry"/>
                </mxCell>
                <mxCell id="651" value="" style="whiteSpace=wrap;html=1;aspect=fixed;" parent="649" vertex="1">
                    <mxGeometry y="20" width="40" height="40" as="geometry"/>
                </mxCell>
                <mxCell id="652" value="" style="whiteSpace=wrap;html=1;aspect=fixed;" parent="649" vertex="1">
                    <mxGeometry y="66.66666666666666" width="40" height="40" as="geometry"/>
                </mxCell>
                <mxCell id="653" value="" style="whiteSpace=wrap;html=1;aspect=fixed;" parent="649" vertex="1">
                    <mxGeometry y="113.33333333333333" width="40" height="40" as="geometry"/>
                </mxCell>
                <mxCell id="654" value="" style="whiteSpace=wrap;html=1;aspect=fixed;" parent="649" vertex="1">
                    <mxGeometry y="160" width="40" height="40" as="geometry"/>
                </mxCell>
                <mxCell id="655" value="" style="whiteSpace=wrap;html=1;aspect=fixed;" parent="649" vertex="1">
                    <mxGeometry y="206.66666666666666" width="40" height="40" as="geometry"/>
                </mxCell>
                <mxCell id="656" value="" style="whiteSpace=wrap;html=1;aspect=fixed;" parent="649" vertex="1">
                    <mxGeometry y="253.33333333333331" width="40" height="40" as="geometry"/>
                </mxCell>
                <mxCell id="659" value="" style="rounded=0;whiteSpace=wrap;html=1;" vertex="1" parent="663">
                    <mxGeometry width="280" height="30" as="geometry"/>
                </mxCell>
                <mxCell id="660" value="" style="triangle;whiteSpace=wrap;html=1;fillStyle=solid;strokeColor=default;fontSize=32;fontColor=#FFFFFF;fillColor=#FFFFFF;direction=west;" vertex="1" parent="663">
                    <mxGeometry x="200" y="8.25" width="10" height="13.5" as="geometry"/>
                </mxCell>
                <mxCell id="661" value="" style="triangle;whiteSpace=wrap;html=1;fillStyle=solid;strokeColor=default;fontSize=32;fontColor=#FFFFFF;fillColor=#FFFFFF;direction=east;" vertex="1" parent="663">
                    <mxGeometry x="240" y="8.25" width="10" height="13.5" as="geometry"/>
                </mxCell>
                <mxCell id="662" value="&lt;font style=&quot;font-size: 16px;&quot;&gt;June 2024&lt;/font&gt;" style="text;html=1;strokeColor=none;fillColor=none;align=left;verticalAlign=middle;whiteSpace=wrap;rounded=0;fillStyle=solid;fontSize=32;fontColor=#FFFFFF;" vertex="1" parent="663">
                    <mxGeometry x="30" y="1.75" width="90" height="28.25" as="geometry"/>
                </mxCell>
                <mxCell id="697" value="" style="group" vertex="1" connectable="0" parent="1">
                    <mxGeometry x="4070" y="460" width="1020" height="768" as="geometry"/>
                </mxCell>
                <mxCell id="665" value="" style="rounded=0;whiteSpace=wrap;html=1;" vertex="1" parent="697">
                    <mxGeometry width="1020" height="768" as="geometry"/>
                </mxCell>
                <mxCell id="816" value="" style="group" vertex="1" connectable="0" parent="697">
                    <mxGeometry width="1020" height="98" as="geometry"/>
                </mxCell>
                <mxCell id="817" value="" style="ellipse;whiteSpace=wrap;html=1;aspect=fixed;fillStyle=solid;strokeColor=default;fontSize=24;fontColor=#FFFFFF;fillColor=none;" vertex="1" parent="816">
                    <mxGeometry x="889" y="5" width="90" height="90" as="geometry"/>
                </mxCell>
                <mxCell id="818" value="" style="rounded=1;whiteSpace=wrap;html=1;fillStyle=solid;strokeColor=default;fontSize=24;fontColor=#000000;fillColor=none;" vertex="1" parent="816">
                    <mxGeometry width="1020" height="98" as="geometry"/>
                </mxCell>
                <mxCell id="819" value="&lt;font style=&quot;font-size: 32px;&quot;&gt;M&lt;/font&gt;" style="text;html=1;strokeColor=none;fillColor=none;align=center;verticalAlign=middle;whiteSpace=wrap;rounded=0;fillStyle=solid;fontSize=24;fontColor=#FFFFFF;" vertex="1" parent="816">
                    <mxGeometry x="904" y="23.75" width="60" height="60" as="geometry"/>
                </mxCell>
                <mxCell id="820" value="" style="rounded=1;whiteSpace=wrap;html=1;fillStyle=solid;strokeColor=default;fontSize=48;fontColor=#FFFFFF;fillColor=none;" vertex="1" parent="816">
                    <mxGeometry y="10" width="220" height="80" as="geometry"/>
                </mxCell>
                <mxCell id="821" value="" style="rounded=1;whiteSpace=wrap;html=1;fillStyle=solid;strokeColor=default;fontSize=48;fontColor=#FFFFFF;fillColor=none;" vertex="1" parent="816">
                    <mxGeometry x="220" y="10" width="220" height="80" as="geometry"/>
                </mxCell>
                <mxCell id="822" value="" style="rounded=1;whiteSpace=wrap;html=1;fillStyle=solid;strokeColor=default;fontSize=48;fontColor=#FFFFFF;fillColor=none;" vertex="1" parent="816">
                    <mxGeometry x="440" y="10" width="205" height="80" as="geometry"/>
                </mxCell>
                <mxCell id="823" value="Today" style="text;html=1;strokeColor=none;fillColor=none;align=center;verticalAlign=middle;whiteSpace=wrap;rounded=0;fillStyle=solid;fontSize=32;fontColor=#FFFFFF;" vertex="1" parent="816">
                    <mxGeometry x="25" y="28" width="170" height="44" as="geometry"/>
                </mxCell>
                <mxCell id="824" value="" style="triangle;whiteSpace=wrap;html=1;fillStyle=solid;strokeColor=default;fontSize=32;fontColor=#FFFFFF;fillColor=#FFFFFF;direction=west;" vertex="1" parent="816">
                    <mxGeometry x="275" y="37.25" width="20" height="23.5" as="geometry"/>
                </mxCell>
                <mxCell id="825" value="" style="triangle;whiteSpace=wrap;html=1;fillStyle=solid;strokeColor=default;fontSize=32;fontColor=#FFFFFF;fillColor=#FFFFFF;direction=east;" vertex="1" parent="816">
                    <mxGeometry x="345" y="37.25" width="20" height="23.5" as="geometry"/>
                </mxCell>
                <mxCell id="826" value="" style="triangle;whiteSpace=wrap;html=1;fillStyle=solid;strokeColor=default;fontSize=32;fontColor=#FFFFFF;fillColor=#FFFFFF;direction=south;" vertex="1" parent="816">
                    <mxGeometry x="615" y="46.75" width="23.5" height="14" as="geometry"/>
                </mxCell>
                <mxCell id="827" value="&lt;font style=&quot;font-size: 24px;&quot;&gt;June, 3, 2024&lt;/font&gt;" style="text;html=1;strokeColor=none;fillColor=none;align=left;verticalAlign=middle;whiteSpace=wrap;rounded=0;fillStyle=solid;fontSize=32;fontColor=#FFFFFF;" vertex="1" parent="816">
                    <mxGeometry x="455" y="34" width="150" height="30" as="geometry"/>
                </mxCell>
                <mxCell id="828" value="" style="rounded=1;whiteSpace=wrap;html=1;fontSize=32;" vertex="1" parent="816">
                    <mxGeometry x="655" y="9.5" width="190" height="81" as="geometry"/>
                </mxCell>
                <mxCell id="829" value="&lt;span style=&quot;font-size: 24px;&quot;&gt;Day&lt;/span&gt;" style="text;html=1;strokeColor=none;fillColor=none;align=center;verticalAlign=middle;whiteSpace=wrap;rounded=0;fillStyle=solid;fontSize=32;fontColor=#FFFFFF;" vertex="1" parent="816">
                    <mxGeometry x="675" y="35" width="150" height="30" as="geometry"/>
                </mxCell>
                <mxCell id="700" style="edgeStyle=none;html=1;exitX=1;exitY=0.5;exitDx=0;exitDy=0;entryX=0;entryY=0.25;entryDx=0;entryDy=0;fontSize=36;" edge="1" parent="1" source="698">
                    <mxGeometry relative="1" as="geometry">
                        <mxPoint x="4070.000000000001" y="815.5" as="targetPoint"/>
                    </mxGeometry>
                </mxCell>
                <mxCell id="698" value="" style="shape=parallelogram;perimeter=parallelogramPerimeter;whiteSpace=wrap;html=1;fixedSize=1;fontSize=16;" vertex="1" parent="1">
                    <mxGeometry x="2560" y="680" width="540" height="282" as="geometry"/>
                </mxCell>
                <mxCell id="699" value="&lt;font style=&quot;font-size: 48px;&quot;&gt;Logged in&lt;/font&gt;" style="text;html=1;strokeColor=none;fillColor=none;align=center;verticalAlign=middle;whiteSpace=wrap;rounded=0;fontSize=16;" vertex="1" parent="1">
                    <mxGeometry x="2665" y="772" width="350" height="96" as="geometry"/>
                </mxCell>
                <mxCell id="705" style="edgeStyle=none;html=1;exitX=0.5;exitY=1;exitDx=0;exitDy=0;entryX=0.5;entryY=0;entryDx=0;entryDy=0;fontSize=48;" edge="1" parent="1" source="703" target="152">
                    <mxGeometry relative="1" as="geometry"/>
                </mxCell>
                <mxCell id="832" style="edgeStyle=none;html=1;exitX=0;exitY=0.5;exitDx=0;exitDy=0;entryX=0.5;entryY=0;entryDx=0;entryDy=0;fontSize=32;" edge="1" parent="1" source="703" target="64">
                    <mxGeometry relative="1" as="geometry"/>
                </mxCell>
                <mxCell id="833" style="edgeStyle=none;html=1;exitX=1;exitY=0.5;exitDx=0;exitDy=0;entryX=0.5;entryY=0;entryDx=0;entryDy=0;fontSize=32;" edge="1" parent="1" source="703" target="250">
                    <mxGeometry relative="1" as="geometry"/>
                </mxCell>
                <mxCell id="703" value="" style="rhombus;whiteSpace=wrap;html=1;fillStyle=solid;strokeColor=default;fontSize=32;fontColor=#FFFFFF;fillColor=default;" vertex="1" parent="1">
                    <mxGeometry x="4382.5" y="1520" width="395" height="350" as="geometry"/>
                </mxCell>
                <mxCell id="704" value="&lt;font style=&quot;font-size: 48px;&quot;&gt;View&lt;/font&gt;" style="text;html=1;strokeColor=none;fillColor=none;align=center;verticalAlign=middle;whiteSpace=wrap;rounded=0;fontSize=36;" vertex="1" parent="1">
                    <mxGeometry x="4460" y="1630" width="240" height="130" as="geometry"/>
                </mxCell>
                <mxCell id="706" style="edgeStyle=none;html=1;exitX=0.5;exitY=1;exitDx=0;exitDy=0;entryX=0.5;entryY=0;entryDx=0;entryDy=0;fontSize=48;" edge="1" parent="1" source="665" target="703">
                    <mxGeometry relative="1" as="geometry"/>
                </mxCell>
                <mxCell id="708" value="" style="group" vertex="1" connectable="0" parent="1">
                    <mxGeometry x="5760" y="-390" width="1020" height="390" as="geometry"/>
                </mxCell>
                <mxCell id="782" value="" style="rounded=0;whiteSpace=wrap;html=1;fontSize=48;" vertex="1" parent="708">
                    <mxGeometry x="760" y="110" width="260" height="280" as="geometry"/>
                </mxCell>
                <mxCell id="783" value="&lt;font style=&quot;font-size: 32px;&quot;&gt;Log out&lt;/font&gt;" style="text;html=1;strokeColor=none;fillColor=none;align=center;verticalAlign=middle;whiteSpace=wrap;rounded=0;fontSize=48;" vertex="1" parent="708">
                    <mxGeometry x="774" y="207.5" width="240" height="85" as="geometry"/>
                </mxCell>
                <mxCell id="834" value="" style="group" vertex="1" connectable="0" parent="708">
                    <mxGeometry width="1020" height="98" as="geometry"/>
                </mxCell>
                <mxCell id="835" value="" style="ellipse;whiteSpace=wrap;html=1;aspect=fixed;fillStyle=solid;strokeColor=default;fontSize=24;fontColor=#FFFFFF;fillColor=none;" vertex="1" parent="834">
                    <mxGeometry x="889" y="5" width="90" height="90" as="geometry"/>
                </mxCell>
                <mxCell id="836" value="" style="rounded=1;whiteSpace=wrap;html=1;fillStyle=solid;strokeColor=default;fontSize=24;fontColor=#000000;fillColor=none;" vertex="1" parent="834">
                    <mxGeometry width="1020" height="98" as="geometry"/>
                </mxCell>
                <mxCell id="837" value="&lt;font style=&quot;font-size: 32px;&quot;&gt;M&lt;/font&gt;" style="text;html=1;strokeColor=none;fillColor=none;align=center;verticalAlign=middle;whiteSpace=wrap;rounded=0;fillStyle=solid;fontSize=24;fontColor=#FFFFFF;" vertex="1" parent="834">
                    <mxGeometry x="904" y="23.75" width="60" height="60" as="geometry"/>
                </mxCell>
                <mxCell id="838" value="" style="rounded=1;whiteSpace=wrap;html=1;fillStyle=solid;strokeColor=default;fontSize=48;fontColor=#FFFFFF;fillColor=none;" vertex="1" parent="834">
                    <mxGeometry y="10" width="220" height="80" as="geometry"/>
                </mxCell>
                <mxCell id="839" value="" style="rounded=1;whiteSpace=wrap;html=1;fillStyle=solid;strokeColor=default;fontSize=48;fontColor=#FFFFFF;fillColor=none;" vertex="1" parent="834">
                    <mxGeometry x="220" y="10" width="220" height="80" as="geometry"/>
                </mxCell>
                <mxCell id="840" value="" style="rounded=1;whiteSpace=wrap;html=1;fillStyle=solid;strokeColor=default;fontSize=48;fontColor=#FFFFFF;fillColor=none;" vertex="1" parent="834">
                    <mxGeometry x="440" y="10" width="205" height="80" as="geometry"/>
                </mxCell>
                <mxCell id="841" value="Today" style="text;html=1;strokeColor=none;fillColor=none;align=center;verticalAlign=middle;whiteSpace=wrap;rounded=0;fillStyle=solid;fontSize=32;fontColor=#FFFFFF;" vertex="1" parent="834">
                    <mxGeometry x="25" y="28" width="170" height="44" as="geometry"/>
                </mxCell>
                <mxCell id="842" value="" style="triangle;whiteSpace=wrap;html=1;fillStyle=solid;strokeColor=default;fontSize=32;fontColor=#FFFFFF;fillColor=#FFFFFF;direction=west;" vertex="1" parent="834">
                    <mxGeometry x="275" y="37.25" width="20" height="23.5" as="geometry"/>
                </mxCell>
                <mxCell id="843" value="" style="triangle;whiteSpace=wrap;html=1;fillStyle=solid;strokeColor=default;fontSize=32;fontColor=#FFFFFF;fillColor=#FFFFFF;direction=east;" vertex="1" parent="834">
                    <mxGeometry x="345" y="37.25" width="20" height="23.5" as="geometry"/>
                </mxCell>
                <mxCell id="844" value="" style="triangle;whiteSpace=wrap;html=1;fillStyle=solid;strokeColor=default;fontSize=32;fontColor=#FFFFFF;fillColor=#FFFFFF;direction=south;" vertex="1" parent="834">
                    <mxGeometry x="615" y="46.75" width="23.5" height="14" as="geometry"/>
                </mxCell>
                <mxCell id="845" value="&lt;font style=&quot;font-size: 24px;&quot;&gt;June, 3, 2024&lt;/font&gt;" style="text;html=1;strokeColor=none;fillColor=none;align=left;verticalAlign=middle;whiteSpace=wrap;rounded=0;fillStyle=solid;fontSize=32;fontColor=#FFFFFF;" vertex="1" parent="834">
                    <mxGeometry x="455" y="34" width="150" height="30" as="geometry"/>
                </mxCell>
                <mxCell id="846" value="" style="rounded=1;whiteSpace=wrap;html=1;fontSize=32;" vertex="1" parent="834">
                    <mxGeometry x="655" y="9.5" width="190" height="81" as="geometry"/>
                </mxCell>
                <mxCell id="847" value="&lt;span style=&quot;font-size: 24px;&quot;&gt;Day&lt;/span&gt;" style="text;html=1;strokeColor=none;fillColor=none;align=center;verticalAlign=middle;whiteSpace=wrap;rounded=0;fillStyle=solid;fontSize=32;fontColor=#FFFFFF;" vertex="1" parent="834">
                    <mxGeometry x="675" y="35" width="150" height="30" as="geometry"/>
                </mxCell>
                <mxCell id="781" style="edgeStyle=none;html=1;exitX=1;exitY=0;exitDx=0;exitDy=0;fontSize=48;entryX=0;entryY=0;entryDx=0;entryDy=0;" edge="1" parent="1" source="819" target="837">
                    <mxGeometry relative="1" as="geometry">
                        <mxPoint x="4994" y="478" as="sourcePoint"/>
                        <mxPoint x="5600" as="targetPoint"/>
                    </mxGeometry>
                </mxCell>
                <mxCell id="786" value="" style="group" vertex="1" connectable="0" parent="1">
                    <mxGeometry x="2550" y="2930" width="1020" height="98" as="geometry"/>
                </mxCell>
                <mxCell id="127" value="" style="ellipse;whiteSpace=wrap;html=1;aspect=fixed;fillStyle=solid;strokeColor=default;fontSize=24;fontColor=#FFFFFF;fillColor=none;" parent="786" vertex="1">
                    <mxGeometry x="889" y="5" width="90" height="90" as="geometry"/>
                </mxCell>
                <mxCell id="39" value="" style="rounded=1;whiteSpace=wrap;html=1;fillStyle=solid;strokeColor=default;fontSize=24;fontColor=#000000;fillColor=none;" parent="786" vertex="1">
                    <mxGeometry width="1020" height="98" as="geometry"/>
                </mxCell>
                <mxCell id="129" value="&lt;font style=&quot;font-size: 32px;&quot;&gt;M&lt;/font&gt;" style="text;html=1;strokeColor=none;fillColor=none;align=center;verticalAlign=middle;whiteSpace=wrap;rounded=0;fillStyle=solid;fontSize=24;fontColor=#FFFFFF;" parent="786" vertex="1">
                    <mxGeometry x="904" y="23.75" width="60" height="60" as="geometry"/>
                </mxCell>
                <mxCell id="116" value="" style="rounded=1;whiteSpace=wrap;html=1;fillStyle=solid;strokeColor=default;fontSize=48;fontColor=#FFFFFF;fillColor=none;" parent="786" vertex="1">
                    <mxGeometry y="10" width="220" height="80" as="geometry"/>
                </mxCell>
                <mxCell id="117" value="" style="rounded=1;whiteSpace=wrap;html=1;fillStyle=solid;strokeColor=default;fontSize=48;fontColor=#FFFFFF;fillColor=none;" parent="786" vertex="1">
                    <mxGeometry x="220" y="10" width="220" height="80" as="geometry"/>
                </mxCell>
                <mxCell id="118" value="" style="rounded=1;whiteSpace=wrap;html=1;fillStyle=solid;strokeColor=default;fontSize=48;fontColor=#FFFFFF;fillColor=none;" parent="786" vertex="1">
                    <mxGeometry x="440" y="10" width="205" height="80" as="geometry"/>
                </mxCell>
                <mxCell id="119" value="Today" style="text;html=1;strokeColor=none;fillColor=none;align=center;verticalAlign=middle;whiteSpace=wrap;rounded=0;fillStyle=solid;fontSize=32;fontColor=#FFFFFF;" parent="786" vertex="1">
                    <mxGeometry x="25" y="28" width="170" height="44" as="geometry"/>
                </mxCell>
                <mxCell id="121" value="" style="triangle;whiteSpace=wrap;html=1;fillStyle=solid;strokeColor=default;fontSize=32;fontColor=#FFFFFF;fillColor=#FFFFFF;direction=west;" parent="786" vertex="1">
                    <mxGeometry x="275" y="37.25" width="20" height="23.5" as="geometry"/>
                </mxCell>
                <mxCell id="124" value="" style="triangle;whiteSpace=wrap;html=1;fillStyle=solid;strokeColor=default;fontSize=32;fontColor=#FFFFFF;fillColor=#FFFFFF;direction=east;" parent="786" vertex="1">
                    <mxGeometry x="345" y="37.25" width="20" height="23.5" as="geometry"/>
                </mxCell>
                <mxCell id="125" value="" style="triangle;whiteSpace=wrap;html=1;fillStyle=solid;strokeColor=default;fontSize=32;fontColor=#FFFFFF;fillColor=#FFFFFF;direction=south;" parent="786" vertex="1">
                    <mxGeometry x="615" y="46.75" width="23.5" height="14" as="geometry"/>
                </mxCell>
                <mxCell id="126" value="&lt;font style=&quot;font-size: 24px;&quot;&gt;June, 3, 2024&lt;/font&gt;" style="text;html=1;strokeColor=none;fillColor=none;align=left;verticalAlign=middle;whiteSpace=wrap;rounded=0;fillStyle=solid;fontSize=32;fontColor=#FFFFFF;" parent="786" vertex="1">
                    <mxGeometry x="455" y="34" width="150" height="30" as="geometry"/>
                </mxCell>
                <mxCell id="784" value="" style="rounded=1;whiteSpace=wrap;html=1;fontSize=32;" vertex="1" parent="786">
                    <mxGeometry x="655" y="9.5" width="190" height="81" as="geometry"/>
                </mxCell>
                <mxCell id="785" value="&lt;span style=&quot;font-size: 24px;&quot;&gt;Day&lt;/span&gt;" style="text;html=1;strokeColor=none;fillColor=none;align=center;verticalAlign=middle;whiteSpace=wrap;rounded=0;fillStyle=solid;fontSize=32;fontColor=#FFFFFF;" vertex="1" parent="786">
                    <mxGeometry x="675" y="35" width="150" height="30" as="geometry"/>
                </mxCell>
                <mxCell id="787" value="" style="group" vertex="1" connectable="0" parent="1">
                    <mxGeometry x="4070" y="2930" width="1020" height="98" as="geometry"/>
                </mxCell>
                <mxCell id="788" value="" style="ellipse;whiteSpace=wrap;html=1;aspect=fixed;fillStyle=solid;strokeColor=default;fontSize=24;fontColor=#FFFFFF;fillColor=none;" vertex="1" parent="787">
                    <mxGeometry x="889" y="5" width="90" height="90" as="geometry"/>
                </mxCell>
                <mxCell id="789" value="" style="rounded=1;whiteSpace=wrap;html=1;fillStyle=solid;strokeColor=default;fontSize=24;fontColor=#000000;fillColor=none;" vertex="1" parent="787">
                    <mxGeometry width="1020" height="98" as="geometry"/>
                </mxCell>
                <mxCell id="790" value="&lt;font style=&quot;font-size: 32px;&quot;&gt;M&lt;/font&gt;" style="text;html=1;strokeColor=none;fillColor=none;align=center;verticalAlign=middle;whiteSpace=wrap;rounded=0;fillStyle=solid;fontSize=24;fontColor=#FFFFFF;" vertex="1" parent="787">
                    <mxGeometry x="904" y="23.75" width="60" height="60" as="geometry"/>
                </mxCell>
                <mxCell id="791" value="" style="rounded=1;whiteSpace=wrap;html=1;fillStyle=solid;strokeColor=default;fontSize=48;fontColor=#FFFFFF;fillColor=none;" vertex="1" parent="787">
                    <mxGeometry y="10" width="220" height="80" as="geometry"/>
                </mxCell>
                <mxCell id="792" value="" style="rounded=1;whiteSpace=wrap;html=1;fillStyle=solid;strokeColor=default;fontSize=48;fontColor=#FFFFFF;fillColor=none;" vertex="1" parent="787">
                    <mxGeometry x="220" y="10" width="220" height="80" as="geometry"/>
                </mxCell>
                <mxCell id="793" value="" style="rounded=1;whiteSpace=wrap;html=1;fillStyle=solid;strokeColor=default;fontSize=48;fontColor=#FFFFFF;fillColor=none;" vertex="1" parent="787">
                    <mxGeometry x="440" y="10" width="205" height="80" as="geometry"/>
                </mxCell>
                <mxCell id="794" value="Today" style="text;html=1;strokeColor=none;fillColor=none;align=center;verticalAlign=middle;whiteSpace=wrap;rounded=0;fillStyle=solid;fontSize=32;fontColor=#FFFFFF;" vertex="1" parent="787">
                    <mxGeometry x="25" y="28" width="170" height="44" as="geometry"/>
                </mxCell>
                <mxCell id="795" value="" style="triangle;whiteSpace=wrap;html=1;fillStyle=solid;strokeColor=default;fontSize=32;fontColor=#FFFFFF;fillColor=#FFFFFF;direction=west;" vertex="1" parent="787">
                    <mxGeometry x="275" y="37.25" width="20" height="23.5" as="geometry"/>
                </mxCell>
                <mxCell id="796" value="" style="triangle;whiteSpace=wrap;html=1;fillStyle=solid;strokeColor=default;fontSize=32;fontColor=#FFFFFF;fillColor=#FFFFFF;direction=east;" vertex="1" parent="787">
                    <mxGeometry x="345" y="37.25" width="20" height="23.5" as="geometry"/>
                </mxCell>
                <mxCell id="797" value="" style="triangle;whiteSpace=wrap;html=1;fillStyle=solid;strokeColor=default;fontSize=32;fontColor=#FFFFFF;fillColor=#FFFFFF;direction=south;" vertex="1" parent="787">
                    <mxGeometry x="615" y="46.75" width="23.5" height="14" as="geometry"/>
                </mxCell>
                <mxCell id="798" value="&lt;font style=&quot;font-size: 24px;&quot;&gt;June, 3, 2024&lt;/font&gt;" style="text;html=1;strokeColor=none;fillColor=none;align=left;verticalAlign=middle;whiteSpace=wrap;rounded=0;fillStyle=solid;fontSize=32;fontColor=#FFFFFF;" vertex="1" parent="787">
                    <mxGeometry x="455" y="34" width="150" height="30" as="geometry"/>
                </mxCell>
                <mxCell id="799" value="" style="rounded=1;whiteSpace=wrap;html=1;fontSize=32;" vertex="1" parent="787">
                    <mxGeometry x="655" y="9.5" width="190" height="81" as="geometry"/>
                </mxCell>
                <mxCell id="800" value="&lt;span style=&quot;font-size: 24px;&quot;&gt;Week&lt;/span&gt;" style="text;html=1;strokeColor=none;fillColor=none;align=center;verticalAlign=middle;whiteSpace=wrap;rounded=0;fillStyle=solid;fontSize=32;fontColor=#FFFFFF;" vertex="1" parent="787">
                    <mxGeometry x="675" y="35" width="150" height="30" as="geometry"/>
                </mxCell>
                <mxCell id="707" style="edgeStyle=none;html=1;fontSize=48;exitX=1;exitY=1;exitDx=0;exitDy=0;entryX=0.5;entryY=0;entryDx=0;entryDy=0;" edge="1" parent="1" source="822" target="854">
                    <mxGeometry relative="1" as="geometry">
                        <mxPoint x="5290" y="830" as="sourcePoint"/>
                        <mxPoint x="6370" y="1110" as="targetPoint"/>
                    </mxGeometry>
                </mxCell>
                <mxCell id="848" value="" style="group" vertex="1" connectable="0" parent="1">
                    <mxGeometry x="5850" y="1250" width="1020" height="98" as="geometry"/>
                </mxCell>
                <mxCell id="849" value="" style="ellipse;whiteSpace=wrap;html=1;aspect=fixed;fillStyle=solid;strokeColor=default;fontSize=24;fontColor=#FFFFFF;fillColor=none;" vertex="1" parent="848">
                    <mxGeometry x="889" y="5" width="90" height="90" as="geometry"/>
                </mxCell>
                <mxCell id="850" value="" style="rounded=1;whiteSpace=wrap;html=1;fillStyle=solid;strokeColor=default;fontSize=24;fontColor=#000000;fillColor=none;" vertex="1" parent="848">
                    <mxGeometry width="1020" height="98" as="geometry"/>
                </mxCell>
                <mxCell id="851" value="&lt;font style=&quot;font-size: 32px;&quot;&gt;M&lt;/font&gt;" style="text;html=1;strokeColor=none;fillColor=none;align=center;verticalAlign=middle;whiteSpace=wrap;rounded=0;fillStyle=solid;fontSize=24;fontColor=#FFFFFF;" vertex="1" parent="848">
                    <mxGeometry x="904" y="23.75" width="60" height="60" as="geometry"/>
                </mxCell>
                <mxCell id="852" value="" style="rounded=1;whiteSpace=wrap;html=1;fillStyle=solid;strokeColor=default;fontSize=48;fontColor=#FFFFFF;fillColor=none;" vertex="1" parent="848">
                    <mxGeometry y="10" width="220" height="80" as="geometry"/>
                </mxCell>
                <mxCell id="853" value="" style="rounded=1;whiteSpace=wrap;html=1;fillStyle=solid;strokeColor=default;fontSize=48;fontColor=#FFFFFF;fillColor=none;" vertex="1" parent="848">
                    <mxGeometry x="220" y="10" width="220" height="80" as="geometry"/>
                </mxCell>
                <mxCell id="854" value="" style="rounded=1;whiteSpace=wrap;html=1;fillStyle=solid;strokeColor=default;fontSize=48;fontColor=#FFFFFF;fillColor=none;" vertex="1" parent="848">
                    <mxGeometry x="440" y="10" width="205" height="80" as="geometry"/>
                </mxCell>
                <mxCell id="855" value="Today" style="text;html=1;strokeColor=none;fillColor=none;align=center;verticalAlign=middle;whiteSpace=wrap;rounded=0;fillStyle=solid;fontSize=32;fontColor=#FFFFFF;" vertex="1" parent="848">
                    <mxGeometry x="25" y="28" width="170" height="44" as="geometry"/>
                </mxCell>
                <mxCell id="856" value="" style="triangle;whiteSpace=wrap;html=1;fillStyle=solid;strokeColor=default;fontSize=32;fontColor=#FFFFFF;fillColor=#FFFFFF;direction=west;" vertex="1" parent="848">
                    <mxGeometry x="275" y="37.25" width="20" height="23.5" as="geometry"/>
                </mxCell>
                <mxCell id="857" value="" style="triangle;whiteSpace=wrap;html=1;fillStyle=solid;strokeColor=default;fontSize=32;fontColor=#FFFFFF;fillColor=#FFFFFF;direction=east;" vertex="1" parent="848">
                    <mxGeometry x="345" y="37.25" width="20" height="23.5" as="geometry"/>
                </mxCell>
                <mxCell id="858" value="" style="triangle;whiteSpace=wrap;html=1;fillStyle=solid;strokeColor=default;fontSize=32;fontColor=#FFFFFF;fillColor=#FFFFFF;direction=south;" vertex="1" parent="848">
                    <mxGeometry x="615" y="46.75" width="23.5" height="14" as="geometry"/>
                </mxCell>
                <mxCell id="859" value="&lt;font style=&quot;font-size: 24px;&quot;&gt;June, 3, 2024&lt;/font&gt;" style="text;html=1;strokeColor=none;fillColor=none;align=left;verticalAlign=middle;whiteSpace=wrap;rounded=0;fillStyle=solid;fontSize=32;fontColor=#FFFFFF;" vertex="1" parent="848">
                    <mxGeometry x="455" y="34" width="150" height="30" as="geometry"/>
                </mxCell>
                <mxCell id="860" value="" style="rounded=1;whiteSpace=wrap;html=1;fontSize=32;" vertex="1" parent="848">
                    <mxGeometry x="655" y="9.5" width="190" height="81" as="geometry"/>
                </mxCell>
                <mxCell id="861" value="&lt;span style=&quot;font-size: 24px;&quot;&gt;Day&lt;/span&gt;" style="text;html=1;strokeColor=none;fillColor=none;align=center;verticalAlign=middle;whiteSpace=wrap;rounded=0;fillStyle=solid;fontSize=32;fontColor=#FFFFFF;" vertex="1" parent="848">
                    <mxGeometry x="675" y="35" width="150" height="30" as="geometry"/>
                </mxCell>
                <mxCell id="869" value="" style="group" vertex="1" connectable="0" parent="1">
                    <mxGeometry x="2580" y="3050" width="80" height="80" as="geometry"/>
                </mxCell>
                <mxCell id="870" value="" style="ellipse;whiteSpace=wrap;html=1;aspect=fixed;fillStyle=solid;strokeColor=default;fontSize=24;fontColor=#FFFFFF;fillColor=none;" vertex="1" parent="869">
                    <mxGeometry width="80" height="80" as="geometry"/>
                </mxCell>
                <mxCell id="871" value="&lt;font style=&quot;font-size: 64px;&quot;&gt;+&lt;/font&gt;" style="text;html=1;strokeColor=none;fillColor=none;align=center;verticalAlign=middle;whiteSpace=wrap;rounded=0;fillStyle=solid;fontSize=32;fontColor=#FFFFFF;" vertex="1" parent="869">
                    <mxGeometry x="10" y="25" width="60" height="30" as="geometry"/>
                </mxCell>
                <mxCell id="883" value="" style="rounded=0;whiteSpace=wrap;html=1;" vertex="1" parent="1">
                    <mxGeometry x="2560" y="4345" width="1020" height="768" as="geometry"/>
                </mxCell>
                <mxCell id="884" value="" style="group" vertex="1" connectable="0" parent="1">
                    <mxGeometry x="2560" y="4560" width="140" height="550" as="geometry"/>
                </mxCell>
                <mxCell id="885" value="" style="rounded=0;whiteSpace=wrap;html=1;fillStyle=solid;strokeColor=default;fontSize=24;fontColor=#000000;fillColor=none;" vertex="1" parent="884">
                    <mxGeometry width="140" height="550" as="geometry"/>
                </mxCell>
                <mxCell id="886" value="7 pm" style="text;html=1;strokeColor=none;fillColor=none;align=center;verticalAlign=middle;whiteSpace=wrap;rounded=0;fillStyle=solid;fontSize=24;fontColor=#FFFFFF;" vertex="1" parent="884">
                    <mxGeometry x="17.5" y="66.66666666666667" width="105" height="50" as="geometry"/>
                </mxCell>
                <mxCell id="887" value="8 pm" style="text;html=1;strokeColor=none;fillColor=none;align=center;verticalAlign=middle;whiteSpace=wrap;rounded=0;fillStyle=solid;fontSize=24;fontColor=#FFFFFF;" vertex="1" parent="884">
                    <mxGeometry x="17.5" y="158.33333333333334" width="105" height="50" as="geometry"/>
                </mxCell>
                <mxCell id="888" value="9 pm" style="text;html=1;strokeColor=none;fillColor=none;align=center;verticalAlign=middle;whiteSpace=wrap;rounded=0;fillStyle=solid;fontSize=24;fontColor=#FFFFFF;" vertex="1" parent="884">
                    <mxGeometry x="17.5" y="250" width="105" height="50" as="geometry"/>
                </mxCell>
                <mxCell id="889" value="10 pm" style="text;html=1;strokeColor=none;fillColor=none;align=center;verticalAlign=middle;whiteSpace=wrap;rounded=0;fillStyle=solid;fontSize=24;fontColor=#FFFFFF;" vertex="1" parent="884">
                    <mxGeometry x="17.5" y="341.6666666666667" width="105" height="50" as="geometry"/>
                </mxCell>
                <mxCell id="890" value="11 pm" style="text;html=1;strokeColor=none;fillColor=none;align=center;verticalAlign=middle;whiteSpace=wrap;rounded=0;fillStyle=solid;fontSize=24;fontColor=#FFFFFF;" vertex="1" parent="884">
                    <mxGeometry x="17.5" y="433.33333333333337" width="105" height="50" as="geometry"/>
                </mxCell>
                <mxCell id="891" value="" style="group" vertex="1" connectable="0" parent="1">
                    <mxGeometry x="2700" y="4560" width="880" height="550" as="geometry"/>
                </mxCell>
                <mxCell id="892" value="" style="rounded=0;whiteSpace=wrap;html=1;fillStyle=solid;strokeColor=default;fontSize=24;fontColor=#000000;fillColor=none;" vertex="1" parent="891">
                    <mxGeometry width="880.0000000000001" height="550" as="geometry"/>
                </mxCell>
                <mxCell id="893" value="" style="rounded=0;whiteSpace=wrap;html=1;fillStyle=solid;strokeColor=default;fontSize=24;fontColor=#FFFFFF;fillColor=none;" vertex="1" parent="891">
                    <mxGeometry width="880.0000000000001" height="91.66666666666667" as="geometry"/>
                </mxCell>
                <mxCell id="894" value="" style="rounded=0;whiteSpace=wrap;html=1;fillStyle=solid;strokeColor=default;fontSize=24;fontColor=#FFFFFF;fillColor=none;" vertex="1" parent="891">
                    <mxGeometry y="91.66666666666667" width="880.0000000000001" height="91.66666666666667" as="geometry"/>
                </mxCell>
                <mxCell id="895" value="" style="rounded=0;whiteSpace=wrap;html=1;fillStyle=solid;strokeColor=default;fontSize=24;fontColor=#FFFFFF;fillColor=none;" vertex="1" parent="891">
                    <mxGeometry y="275.83333333333337" width="880.0000000000001" height="91.66666666666667" as="geometry"/>
                </mxCell>
                <mxCell id="896" value="" style="rounded=0;whiteSpace=wrap;html=1;fillStyle=solid;strokeColor=default;fontSize=24;fontColor=#FFFFFF;fillColor=none;" vertex="1" parent="891">
                    <mxGeometry y="184.16666666666669" width="880.0000000000001" height="91.66666666666667" as="geometry"/>
                </mxCell>
                <mxCell id="897" value="" style="rounded=0;whiteSpace=wrap;html=1;fillStyle=solid;strokeColor=default;fontSize=24;fontColor=#FFFFFF;fillColor=none;" vertex="1" parent="891">
                    <mxGeometry y="367.5" width="880.0000000000001" height="91.66666666666667" as="geometry"/>
                </mxCell>
                <mxCell id="972" value="" style="group" vertex="1" connectable="0" parent="891">
                    <mxGeometry x="20" y="340" width="860" height="210" as="geometry"/>
                </mxCell>
                <mxCell id="898" value="" style="rounded=1;whiteSpace=wrap;html=1;fontSize=24;fillColor=#7F00FF;" vertex="1" parent="972">
                    <mxGeometry width="860" height="210" as="geometry"/>
                </mxCell>
                <mxCell id="899" value="Event (split day)" style="text;html=1;strokeColor=none;fillColor=none;align=left;verticalAlign=middle;whiteSpace=wrap;rounded=0;fontSize=36;" vertex="1" parent="972">
                    <mxGeometry x="40" y="40" width="400" height="30" as="geometry"/>
                </mxCell>
                <mxCell id="900" value="" style="rounded=0;whiteSpace=wrap;html=1;fillStyle=solid;strokeColor=default;fontSize=24;fontColor=#FFFFFF;fillColor=none;" vertex="1" parent="1">
                    <mxGeometry x="2560" y="4440" width="1020" height="120" as="geometry"/>
                </mxCell>
                <mxCell id="901" value="" style="rounded=1;whiteSpace=wrap;html=1;fillStyle=solid;strokeColor=default;fontSize=64;fontColor=#FFFFFF;fillColor=none;" vertex="1" parent="1">
                    <mxGeometry x="2700" y="4450" width="870" height="100" as="geometry"/>
                </mxCell>
                <mxCell id="902" value="Mon, 3" style="text;html=1;strokeColor=none;fillColor=none;align=left;verticalAlign=middle;whiteSpace=wrap;rounded=0;fillStyle=solid;fontSize=32;fontColor=#FFFFFF;" vertex="1" parent="1">
                    <mxGeometry x="3083.75" y="4460" width="102.5" height="30" as="geometry"/>
                </mxCell>
                <mxCell id="903" value="" style="group" vertex="1" connectable="0" parent="1">
                    <mxGeometry x="2560" y="4340" width="1020" height="98" as="geometry"/>
                </mxCell>
                <mxCell id="904" value="" style="ellipse;whiteSpace=wrap;html=1;aspect=fixed;fillStyle=solid;strokeColor=default;fontSize=24;fontColor=#FFFFFF;fillColor=none;" vertex="1" parent="903">
                    <mxGeometry x="889" y="5" width="90" height="90" as="geometry"/>
                </mxCell>
                <mxCell id="905" value="" style="rounded=1;whiteSpace=wrap;html=1;fillStyle=solid;strokeColor=default;fontSize=24;fontColor=#000000;fillColor=none;" vertex="1" parent="903">
                    <mxGeometry width="1020" height="98" as="geometry"/>
                </mxCell>
                <mxCell id="906" value="&lt;font style=&quot;font-size: 32px;&quot;&gt;M&lt;/font&gt;" style="text;html=1;strokeColor=none;fillColor=none;align=center;verticalAlign=middle;whiteSpace=wrap;rounded=0;fillStyle=solid;fontSize=24;fontColor=#FFFFFF;" vertex="1" parent="903">
                    <mxGeometry x="904" y="23.75" width="60" height="60" as="geometry"/>
                </mxCell>
                <mxCell id="907" value="" style="rounded=1;whiteSpace=wrap;html=1;fillStyle=solid;strokeColor=default;fontSize=48;fontColor=#FFFFFF;fillColor=none;" vertex="1" parent="903">
                    <mxGeometry y="10" width="220" height="80" as="geometry"/>
                </mxCell>
                <mxCell id="908" value="" style="rounded=1;whiteSpace=wrap;html=1;fillStyle=solid;strokeColor=default;fontSize=48;fontColor=#FFFFFF;fillColor=none;" vertex="1" parent="903">
                    <mxGeometry x="220" y="10" width="220" height="80" as="geometry"/>
                </mxCell>
                <mxCell id="909" value="" style="rounded=1;whiteSpace=wrap;html=1;fillStyle=solid;strokeColor=default;fontSize=48;fontColor=#FFFFFF;fillColor=none;" vertex="1" parent="903">
                    <mxGeometry x="440" y="10" width="205" height="80" as="geometry"/>
                </mxCell>
                <mxCell id="910" value="Today" style="text;html=1;strokeColor=none;fillColor=none;align=center;verticalAlign=middle;whiteSpace=wrap;rounded=0;fillStyle=solid;fontSize=32;fontColor=#FFFFFF;" vertex="1" parent="903">
                    <mxGeometry x="25" y="28" width="170" height="44" as="geometry"/>
                </mxCell>
                <mxCell id="911" value="" style="triangle;whiteSpace=wrap;html=1;fillStyle=solid;strokeColor=default;fontSize=32;fontColor=#FFFFFF;fillColor=#FFFFFF;direction=west;" vertex="1" parent="903">
                    <mxGeometry x="275" y="37.25" width="20" height="23.5" as="geometry"/>
                </mxCell>
                <mxCell id="912" value="" style="triangle;whiteSpace=wrap;html=1;fillStyle=solid;strokeColor=default;fontSize=32;fontColor=#FFFFFF;fillColor=#FFFFFF;direction=east;" vertex="1" parent="903">
                    <mxGeometry x="345" y="37.25" width="20" height="23.5" as="geometry"/>
                </mxCell>
                <mxCell id="913" value="" style="triangle;whiteSpace=wrap;html=1;fillStyle=solid;strokeColor=default;fontSize=32;fontColor=#FFFFFF;fillColor=#FFFFFF;direction=south;" vertex="1" parent="903">
                    <mxGeometry x="615" y="46.75" width="23.5" height="14" as="geometry"/>
                </mxCell>
                <mxCell id="914" value="&lt;font style=&quot;font-size: 24px;&quot;&gt;June, 3, 2024&lt;/font&gt;" style="text;html=1;strokeColor=none;fillColor=none;align=left;verticalAlign=middle;whiteSpace=wrap;rounded=0;fillStyle=solid;fontSize=32;fontColor=#FFFFFF;" vertex="1" parent="903">
                    <mxGeometry x="455" y="34" width="150" height="30" as="geometry"/>
                </mxCell>
                <mxCell id="915" value="" style="rounded=1;whiteSpace=wrap;html=1;fontSize=32;" vertex="1" parent="903">
                    <mxGeometry x="655" y="9.5" width="190" height="81" as="geometry"/>
                </mxCell>
                <mxCell id="916" value="&lt;span style=&quot;font-size: 24px;&quot;&gt;Day&lt;/span&gt;" style="text;html=1;strokeColor=none;fillColor=none;align=center;verticalAlign=middle;whiteSpace=wrap;rounded=0;fillStyle=solid;fontSize=32;fontColor=#FFFFFF;" vertex="1" parent="903">
                    <mxGeometry x="675" y="35" width="150" height="30" as="geometry"/>
                </mxCell>
                <mxCell id="917" value="" style="group" vertex="1" connectable="0" parent="1">
                    <mxGeometry x="2590" y="4460" width="80" height="80" as="geometry"/>
                </mxCell>
                <mxCell id="918" value="" style="ellipse;whiteSpace=wrap;html=1;aspect=fixed;fillStyle=solid;strokeColor=default;fontSize=24;fontColor=#FFFFFF;fillColor=none;" vertex="1" parent="917">
                    <mxGeometry width="80" height="80" as="geometry"/>
                </mxCell>
                <mxCell id="919" value="&lt;font style=&quot;font-size: 64px;&quot;&gt;+&lt;/font&gt;" style="text;html=1;strokeColor=none;fillColor=none;align=center;verticalAlign=middle;whiteSpace=wrap;rounded=0;fillStyle=solid;fontSize=32;fontColor=#FFFFFF;" vertex="1" parent="917">
                    <mxGeometry x="10" y="25" width="60" height="30" as="geometry"/>
                </mxCell>
                <mxCell id="920" value="" style="rounded=1;whiteSpace=wrap;html=1;fontSize=36;fillColor=#3399FF;" vertex="1" parent="1">
                    <mxGeometry x="2710" y="4500" width="850" height="40" as="geometry"/>
                </mxCell>
                <mxCell id="921" value="All day event or task" style="text;html=1;strokeColor=none;fillColor=none;align=left;verticalAlign=middle;whiteSpace=wrap;rounded=0;fontSize=24;" vertex="1" parent="1">
                    <mxGeometry x="2730" y="4505" width="470" height="30" as="geometry"/>
                </mxCell>
                <mxCell id="922" value="" style="rounded=0;whiteSpace=wrap;html=1;" vertex="1" parent="1">
                    <mxGeometry x="2570" y="5832" width="1020" height="768" as="geometry"/>
                </mxCell>
                <mxCell id="923" value="" style="group" vertex="1" connectable="0" parent="1">
                    <mxGeometry x="2570" y="6047" width="140" height="550" as="geometry"/>
                </mxCell>
                <mxCell id="924" value="" style="rounded=0;whiteSpace=wrap;html=1;fillStyle=solid;strokeColor=default;fontSize=24;fontColor=#000000;fillColor=none;" vertex="1" parent="923">
                    <mxGeometry width="140" height="550" as="geometry"/>
                </mxCell>
                <mxCell id="925" value="1 am" style="text;html=1;strokeColor=none;fillColor=none;align=center;verticalAlign=middle;whiteSpace=wrap;rounded=0;fillStyle=solid;fontSize=24;fontColor=#FFFFFF;" vertex="1" parent="923">
                    <mxGeometry x="17.5" y="66.66666666666667" width="105" height="50" as="geometry"/>
                </mxCell>
                <mxCell id="926" value="2 am" style="text;html=1;strokeColor=none;fillColor=none;align=center;verticalAlign=middle;whiteSpace=wrap;rounded=0;fillStyle=solid;fontSize=24;fontColor=#FFFFFF;" vertex="1" parent="923">
                    <mxGeometry x="17.5" y="158.33333333333334" width="105" height="50" as="geometry"/>
                </mxCell>
                <mxCell id="927" value="3 am" style="text;html=1;strokeColor=none;fillColor=none;align=center;verticalAlign=middle;whiteSpace=wrap;rounded=0;fillStyle=solid;fontSize=24;fontColor=#FFFFFF;" vertex="1" parent="923">
                    <mxGeometry x="17.5" y="250" width="105" height="50" as="geometry"/>
                </mxCell>
                <mxCell id="928" value="4 am" style="text;html=1;strokeColor=none;fillColor=none;align=center;verticalAlign=middle;whiteSpace=wrap;rounded=0;fillStyle=solid;fontSize=24;fontColor=#FFFFFF;" vertex="1" parent="923">
                    <mxGeometry x="17.5" y="341.6666666666667" width="105" height="50" as="geometry"/>
                </mxCell>
                <mxCell id="929" value="5 am" style="text;html=1;strokeColor=none;fillColor=none;align=center;verticalAlign=middle;whiteSpace=wrap;rounded=0;fillStyle=solid;fontSize=24;fontColor=#FFFFFF;" vertex="1" parent="923">
                    <mxGeometry x="17.5" y="433.33333333333337" width="105" height="50" as="geometry"/>
                </mxCell>
                <mxCell id="930" value="" style="group" vertex="1" connectable="0" parent="1">
                    <mxGeometry x="2710" y="6047" width="880" height="550" as="geometry"/>
                </mxCell>
                <mxCell id="931" value="" style="rounded=0;whiteSpace=wrap;html=1;fillStyle=solid;strokeColor=default;fontSize=24;fontColor=#000000;fillColor=none;" vertex="1" parent="930">
                    <mxGeometry width="880.0000000000001" height="550" as="geometry"/>
                </mxCell>
                <mxCell id="932" value="" style="rounded=0;whiteSpace=wrap;html=1;fillStyle=solid;strokeColor=default;fontSize=24;fontColor=#FFFFFF;fillColor=none;" vertex="1" parent="930">
                    <mxGeometry width="880.0000000000001" height="91.66666666666667" as="geometry"/>
                </mxCell>
                <mxCell id="933" value="" style="rounded=0;whiteSpace=wrap;html=1;fillStyle=solid;strokeColor=default;fontSize=24;fontColor=#FFFFFF;fillColor=none;" vertex="1" parent="930">
                    <mxGeometry y="91.66666666666667" width="880.0000000000001" height="91.66666666666667" as="geometry"/>
                </mxCell>
                <mxCell id="934" value="" style="rounded=0;whiteSpace=wrap;html=1;fillStyle=solid;strokeColor=default;fontSize=24;fontColor=#FFFFFF;fillColor=none;" vertex="1" parent="930">
                    <mxGeometry y="275.83333333333337" width="880.0000000000001" height="91.66666666666667" as="geometry"/>
                </mxCell>
                <mxCell id="935" value="" style="rounded=0;whiteSpace=wrap;html=1;fillStyle=solid;strokeColor=default;fontSize=24;fontColor=#FFFFFF;fillColor=none;" vertex="1" parent="930">
                    <mxGeometry y="184.16666666666669" width="880.0000000000001" height="91.66666666666667" as="geometry"/>
                </mxCell>
                <mxCell id="936" value="" style="rounded=0;whiteSpace=wrap;html=1;fillStyle=solid;strokeColor=default;fontSize=24;fontColor=#FFFFFF;fillColor=none;" vertex="1" parent="930">
                    <mxGeometry y="367.5" width="880.0000000000001" height="91.66666666666667" as="geometry"/>
                </mxCell>
                <mxCell id="937" value="" style="rounded=1;whiteSpace=wrap;html=1;fontSize=24;fillColor=#7F00FF;" vertex="1" parent="930">
                    <mxGeometry x="20" width="860" height="110" as="geometry"/>
                </mxCell>
                <mxCell id="938" value="Event (split day)" style="text;html=1;strokeColor=none;fillColor=none;align=left;verticalAlign=middle;whiteSpace=wrap;rounded=0;fontSize=36;" vertex="1" parent="930">
                    <mxGeometry x="40" y="30.83" width="400" height="30" as="geometry"/>
                </mxCell>
                <mxCell id="939" value="" style="rounded=0;whiteSpace=wrap;html=1;fillStyle=solid;strokeColor=default;fontSize=24;fontColor=#FFFFFF;fillColor=none;" vertex="1" parent="1">
                    <mxGeometry x="2570" y="5927" width="1020" height="120" as="geometry"/>
                </mxCell>
                <mxCell id="940" value="" style="rounded=1;whiteSpace=wrap;html=1;fillStyle=solid;strokeColor=default;fontSize=64;fontColor=#FFFFFF;fillColor=none;" vertex="1" parent="1">
                    <mxGeometry x="2710" y="5937" width="870" height="100" as="geometry"/>
                </mxCell>
                <mxCell id="941" value="Mon, 3" style="text;html=1;strokeColor=none;fillColor=none;align=left;verticalAlign=middle;whiteSpace=wrap;rounded=0;fillStyle=solid;fontSize=32;fontColor=#FFFFFF;" vertex="1" parent="1">
                    <mxGeometry x="3093.75" y="5947" width="102.5" height="30" as="geometry"/>
                </mxCell>
                <mxCell id="942" value="" style="group" vertex="1" connectable="0" parent="1">
                    <mxGeometry x="2570" y="5827" width="1020" height="98" as="geometry"/>
                </mxCell>
                <mxCell id="943" value="" style="ellipse;whiteSpace=wrap;html=1;aspect=fixed;fillStyle=solid;strokeColor=default;fontSize=24;fontColor=#FFFFFF;fillColor=none;" vertex="1" parent="942">
                    <mxGeometry x="889" y="5" width="90" height="90" as="geometry"/>
                </mxCell>
                <mxCell id="944" value="" style="rounded=1;whiteSpace=wrap;html=1;fillStyle=solid;strokeColor=default;fontSize=24;fontColor=#000000;fillColor=none;" vertex="1" parent="942">
                    <mxGeometry width="1020" height="98" as="geometry"/>
                </mxCell>
                <mxCell id="945" value="&lt;font style=&quot;font-size: 32px;&quot;&gt;M&lt;/font&gt;" style="text;html=1;strokeColor=none;fillColor=none;align=center;verticalAlign=middle;whiteSpace=wrap;rounded=0;fillStyle=solid;fontSize=24;fontColor=#FFFFFF;" vertex="1" parent="942">
                    <mxGeometry x="904" y="23.75" width="60" height="60" as="geometry"/>
                </mxCell>
                <mxCell id="946" value="" style="rounded=1;whiteSpace=wrap;html=1;fillStyle=solid;strokeColor=default;fontSize=48;fontColor=#FFFFFF;fillColor=none;" vertex="1" parent="942">
                    <mxGeometry y="10" width="220" height="80" as="geometry"/>
                </mxCell>
                <mxCell id="947" value="" style="rounded=1;whiteSpace=wrap;html=1;fillStyle=solid;strokeColor=default;fontSize=48;fontColor=#FFFFFF;fillColor=none;" vertex="1" parent="942">
                    <mxGeometry x="220" y="10" width="220" height="80" as="geometry"/>
                </mxCell>
                <mxCell id="948" value="" style="rounded=1;whiteSpace=wrap;html=1;fillStyle=solid;strokeColor=default;fontSize=48;fontColor=#FFFFFF;fillColor=none;" vertex="1" parent="942">
                    <mxGeometry x="440" y="10" width="205" height="80" as="geometry"/>
                </mxCell>
                <mxCell id="949" value="Today" style="text;html=1;strokeColor=none;fillColor=none;align=center;verticalAlign=middle;whiteSpace=wrap;rounded=0;fillStyle=solid;fontSize=32;fontColor=#FFFFFF;" vertex="1" parent="942">
                    <mxGeometry x="25" y="28" width="170" height="44" as="geometry"/>
                </mxCell>
                <mxCell id="950" value="" style="triangle;whiteSpace=wrap;html=1;fillStyle=solid;strokeColor=default;fontSize=32;fontColor=#FFFFFF;fillColor=#FFFFFF;direction=west;" vertex="1" parent="942">
                    <mxGeometry x="275" y="37.25" width="20" height="23.5" as="geometry"/>
                </mxCell>
                <mxCell id="951" value="" style="triangle;whiteSpace=wrap;html=1;fillStyle=solid;strokeColor=default;fontSize=32;fontColor=#FFFFFF;fillColor=#FFFFFF;direction=east;" vertex="1" parent="942">
                    <mxGeometry x="345" y="37.25" width="20" height="23.5" as="geometry"/>
                </mxCell>
                <mxCell id="952" value="" style="triangle;whiteSpace=wrap;html=1;fillStyle=solid;strokeColor=default;fontSize=32;fontColor=#FFFFFF;fillColor=#FFFFFF;direction=south;" vertex="1" parent="942">
                    <mxGeometry x="615" y="46.75" width="23.5" height="14" as="geometry"/>
                </mxCell>
                <mxCell id="953" value="&lt;font style=&quot;font-size: 24px;&quot;&gt;June, 3, 2024&lt;/font&gt;" style="text;html=1;strokeColor=none;fillColor=none;align=left;verticalAlign=middle;whiteSpace=wrap;rounded=0;fillStyle=solid;fontSize=32;fontColor=#FFFFFF;" vertex="1" parent="942">
                    <mxGeometry x="455" y="34" width="150" height="30" as="geometry"/>
                </mxCell>
                <mxCell id="954" value="" style="rounded=1;whiteSpace=wrap;html=1;fontSize=32;" vertex="1" parent="942">
                    <mxGeometry x="655" y="9.5" width="190" height="81" as="geometry"/>
                </mxCell>
                <mxCell id="955" value="&lt;span style=&quot;font-size: 24px;&quot;&gt;Day&lt;/span&gt;" style="text;html=1;strokeColor=none;fillColor=none;align=center;verticalAlign=middle;whiteSpace=wrap;rounded=0;fillStyle=solid;fontSize=32;fontColor=#FFFFFF;" vertex="1" parent="942">
                    <mxGeometry x="675" y="35" width="150" height="30" as="geometry"/>
                </mxCell>
                <mxCell id="956" value="" style="group" vertex="1" connectable="0" parent="1">
                    <mxGeometry x="2600" y="5947" width="80" height="80" as="geometry"/>
                </mxCell>
                <mxCell id="957" value="" style="ellipse;whiteSpace=wrap;html=1;aspect=fixed;fillStyle=solid;strokeColor=default;fontSize=24;fontColor=#FFFFFF;fillColor=none;" vertex="1" parent="956">
                    <mxGeometry width="80" height="80" as="geometry"/>
                </mxCell>
                <mxCell id="958" value="&lt;font style=&quot;font-size: 64px;&quot;&gt;+&lt;/font&gt;" style="text;html=1;strokeColor=none;fillColor=none;align=center;verticalAlign=middle;whiteSpace=wrap;rounded=0;fillStyle=solid;fontSize=32;fontColor=#FFFFFF;" vertex="1" parent="956">
                    <mxGeometry x="10" y="25" width="60" height="30" as="geometry"/>
                </mxCell>
                <mxCell id="959" value="" style="rounded=1;whiteSpace=wrap;html=1;fontSize=36;fillColor=#3399FF;" vertex="1" parent="1">
                    <mxGeometry x="2720" y="5987" width="850" height="40" as="geometry"/>
                </mxCell>
                <mxCell id="960" value="All day event or task" style="text;html=1;strokeColor=none;fillColor=none;align=left;verticalAlign=middle;whiteSpace=wrap;rounded=0;fontSize=24;" vertex="1" parent="1">
                    <mxGeometry x="2740" y="5992" width="470" height="30" as="geometry"/>
                </mxCell>
                <mxCell id="961" style="edgeStyle=none;html=1;entryX=0.5;entryY=0;entryDx=0;entryDy=0;fontSize=24;exitX=0.5;exitY=1;exitDx=0;exitDy=0;" edge="1" parent="1" source="883" target="944">
                    <mxGeometry relative="1" as="geometry">
                        <mxPoint x="3070" y="5120" as="sourcePoint"/>
                    </mxGeometry>
                </mxCell>
                <mxCell id="962" style="edgeStyle=none;html=1;entryX=0.5;entryY=0;entryDx=0;entryDy=0;fontSize=24;exitX=0.519;exitY=1.001;exitDx=0;exitDy=0;exitPerimeter=0;" edge="1" parent="1" source="31" target="905">
                    <mxGeometry relative="1" as="geometry">
                        <mxPoint x="3080" y="3710" as="sourcePoint"/>
                    </mxGeometry>
                </mxCell>
                <mxCell id="965" value="" style="group" vertex="1" connectable="0" parent="1">
                    <mxGeometry x="2700" y="3090" width="850" height="40" as="geometry"/>
                </mxCell>
                <mxCell id="881" value="" style="rounded=1;whiteSpace=wrap;html=1;fontSize=36;fillColor=#3399FF;" vertex="1" parent="965">
                    <mxGeometry width="850" height="40" as="geometry"/>
                </mxCell>
                <mxCell id="882" value="All day event or task" style="text;html=1;strokeColor=none;fillColor=none;align=left;verticalAlign=middle;whiteSpace=wrap;rounded=0;fontSize=24;" vertex="1" parent="965">
                    <mxGeometry x="20" y="5" width="470" height="30" as="geometry"/>
                </mxCell>
                <mxCell id="973" value="" style="group" vertex="1" connectable="0" parent="1">
                    <mxGeometry x="4620" y="3490" width="110" height="210" as="geometry"/>
                </mxCell>
                <mxCell id="974" value="" style="rounded=1;whiteSpace=wrap;html=1;fontSize=24;fillColor=#7F00FF;" vertex="1" parent="973">
                    <mxGeometry width="110" height="210" as="geometry"/>
                </mxCell>
                <mxCell id="975" value="&lt;font style=&quot;font-size: 12px;&quot;&gt;Event (split day)&lt;/font&gt;" style="text;html=1;strokeColor=none;fillColor=none;align=left;verticalAlign=middle;whiteSpace=wrap;rounded=0;fontSize=36;" vertex="1" parent="973">
                    <mxGeometry x="8" y="10" width="94.88" height="30" as="geometry"/>
                </mxCell>
                <mxCell id="1051" value="" style="group" vertex="1" connectable="0" parent="1">
                    <mxGeometry x="4070" y="3028" width="1150" height="120" as="geometry"/>
                </mxCell>
                <mxCell id="1056" value="" style="group" vertex="1" connectable="0" parent="1051">
                    <mxGeometry width="1020" height="120" as="geometry"/>
                </mxCell>
                <mxCell id="146" value="" style="rounded=0;whiteSpace=wrap;html=1;fillStyle=solid;strokeColor=default;fontSize=24;fontColor=#FFFFFF;fillColor=none;container=0;" parent="1056" vertex="1">
                    <mxGeometry width="1020" height="120" as="geometry"/>
                </mxCell>
                <mxCell id="208" value="" style="group" parent="1056" vertex="1" connectable="0">
                    <mxGeometry x="180" y="12" width="120" height="100" as="geometry"/>
                </mxCell>
                <mxCell id="149" value="" style="rounded=1;whiteSpace=wrap;html=1;fillStyle=solid;strokeColor=default;fontSize=64;fontColor=#FFFFFF;fillColor=none;" parent="208" vertex="1">
                    <mxGeometry width="119.99999999999999" height="100" as="geometry"/>
                </mxCell>
                <mxCell id="998" value="" style="group" vertex="1" connectable="0" parent="149">
                    <mxGeometry x="32.5" y="10" width="55" height="50" as="geometry"/>
                </mxCell>
                <mxCell id="999" value="" style="ellipse;whiteSpace=wrap;html=1;aspect=fixed;rounded=0;strokeColor=default;fontSize=8;fillColor=none;" vertex="1" parent="998">
                    <mxGeometry width="50" height="50" as="geometry"/>
                </mxCell>
                <mxCell id="1000" value="&lt;p style=&quot;line-height: 30%;&quot;&gt;&lt;font style=&quot;font-size: 16px;&quot;&gt;Sun&lt;br&gt;2&lt;/font&gt;&lt;/p&gt;" style="text;html=1;strokeColor=none;fillColor=none;align=center;verticalAlign=middle;whiteSpace=wrap;rounded=0;fillStyle=solid;fontSize=32;fontColor=#FFFFFF;" vertex="1" parent="998">
                    <mxGeometry x="5.3306249999996" y="8.75500000000011" width="39.345625" height="31.25" as="geometry"/>
                </mxCell>
                <mxCell id="209" value="" style="group" parent="1056" vertex="1" connectable="0">
                    <mxGeometry x="300" y="12" width="120" height="100" as="geometry"/>
                </mxCell>
                <mxCell id="210" value="" style="rounded=1;whiteSpace=wrap;html=1;fillStyle=solid;strokeColor=default;fontSize=64;fontColor=#FFFFFF;fillColor=none;" parent="209" vertex="1">
                    <mxGeometry width="119.99999999999999" height="100" as="geometry"/>
                </mxCell>
                <mxCell id="966" value="" style="group" vertex="1" connectable="0" parent="209">
                    <mxGeometry x="5" y="70" width="110" height="20" as="geometry"/>
                </mxCell>
                <mxCell id="967" value="" style="rounded=1;whiteSpace=wrap;html=1;fontSize=36;fillColor=#3399FF;" vertex="1" parent="966">
                    <mxGeometry width="110" height="20" as="geometry"/>
                </mxCell>
                <mxCell id="968" value="&lt;font style=&quot;font-size: 9px;&quot;&gt;All day event or task&lt;/font&gt;" style="text;html=1;strokeColor=none;fillColor=none;align=left;verticalAlign=middle;whiteSpace=wrap;rounded=0;fontSize=24;" vertex="1" parent="966">
                    <mxGeometry width="98.24833333333333" height="15" as="geometry"/>
                </mxCell>
                <mxCell id="993" value="" style="group" vertex="1" connectable="0" parent="209">
                    <mxGeometry x="32.5" y="10" width="55" height="50" as="geometry"/>
                </mxCell>
                <mxCell id="994" value="" style="ellipse;whiteSpace=wrap;html=1;aspect=fixed;rounded=0;strokeColor=default;fontSize=8;fillColor=none;" vertex="1" parent="993">
                    <mxGeometry width="50" height="50" as="geometry"/>
                </mxCell>
                <mxCell id="995" value="&lt;p style=&quot;line-height: 30%;&quot;&gt;&lt;span style=&quot;font-size: 16px;&quot;&gt;Mon 3&lt;/span&gt;&lt;/p&gt;" style="text;html=1;strokeColor=none;fillColor=none;align=center;verticalAlign=middle;whiteSpace=wrap;rounded=0;fillStyle=solid;fontSize=32;fontColor=#FFFFFF;" vertex="1" parent="993">
                    <mxGeometry x="7.830624999999998" y="9.375" width="39.345625" height="31.25" as="geometry"/>
                </mxCell>
                <mxCell id="212" value="" style="group" parent="1056" vertex="1" connectable="0">
                    <mxGeometry x="420" y="12" width="120" height="100" as="geometry"/>
                </mxCell>
                <mxCell id="213" value="" style="rounded=1;whiteSpace=wrap;html=1;fillStyle=solid;strokeColor=default;fontSize=64;fontColor=#FFFFFF;fillColor=none;" parent="212" vertex="1">
                    <mxGeometry width="119.99999999999999" height="100" as="geometry"/>
                </mxCell>
                <mxCell id="1001" value="" style="group" vertex="1" connectable="0" parent="212">
                    <mxGeometry x="37.5" y="10" width="55" height="50" as="geometry"/>
                </mxCell>
                <mxCell id="1002" value="" style="ellipse;whiteSpace=wrap;html=1;aspect=fixed;rounded=0;strokeColor=default;fontSize=8;fillColor=#3333FF;" vertex="1" parent="1001">
                    <mxGeometry width="50" height="50" as="geometry"/>
                </mxCell>
                <mxCell id="1003" value="&lt;p style=&quot;line-height: 30%;&quot;&gt;&lt;font style=&quot;font-size: 16px;&quot;&gt;Tue&lt;br&gt;4&lt;/font&gt;&lt;/p&gt;" style="text;html=1;strokeColor=none;fillColor=none;align=center;verticalAlign=middle;whiteSpace=wrap;rounded=0;fillStyle=solid;fontSize=32;fontColor=#FFFFFF;" vertex="1" parent="1001">
                    <mxGeometry x="5.330625" y="9.375" width="39.345625" height="31.25" as="geometry"/>
                </mxCell>
                <mxCell id="215" value="" style="group" parent="1056" vertex="1" connectable="0">
                    <mxGeometry x="540" y="12" width="150" height="100" as="geometry"/>
                </mxCell>
                <mxCell id="216" value="" style="rounded=1;whiteSpace=wrap;html=1;fillStyle=solid;strokeColor=default;fontSize=64;fontColor=#FFFFFF;fillColor=none;" parent="215" vertex="1">
                    <mxGeometry width="119.99999999999999" height="100" as="geometry"/>
                </mxCell>
                <mxCell id="1004" value="" style="group" vertex="1" connectable="0" parent="216">
                    <mxGeometry x="35" y="10" width="55" height="50" as="geometry"/>
                </mxCell>
                <mxCell id="1005" value="" style="ellipse;whiteSpace=wrap;html=1;aspect=fixed;rounded=0;strokeColor=default;fontSize=8;fillColor=none;" vertex="1" parent="1004">
                    <mxGeometry width="50" height="50" as="geometry"/>
                </mxCell>
                <mxCell id="1006" value="&lt;p style=&quot;line-height: 30%;&quot;&gt;&lt;span style=&quot;font-size: 16px;&quot;&gt;Wed 5&lt;/span&gt;&lt;/p&gt;" style="text;html=1;strokeColor=none;fillColor=none;align=center;verticalAlign=middle;whiteSpace=wrap;rounded=0;fillStyle=solid;fontSize=32;fontColor=#FFFFFF;" vertex="1" parent="1004">
                    <mxGeometry x="5.330624999999998" y="9.375000000000004" width="39.345625" height="31.25" as="geometry"/>
                </mxCell>
                <mxCell id="218" value="" style="group" parent="1056" vertex="1" connectable="0">
                    <mxGeometry x="660" y="12" width="120" height="100" as="geometry"/>
                </mxCell>
                <mxCell id="219" value="" style="rounded=1;whiteSpace=wrap;html=1;fillStyle=solid;strokeColor=default;fontSize=64;fontColor=#FFFFFF;fillColor=none;" parent="218" vertex="1">
                    <mxGeometry width="119.99999999999999" height="100" as="geometry"/>
                </mxCell>
                <mxCell id="1007" value="" style="group" vertex="1" connectable="0" parent="218">
                    <mxGeometry x="37.9399999999996" y="9.5" width="55" height="50" as="geometry"/>
                </mxCell>
                <mxCell id="1008" value="" style="ellipse;whiteSpace=wrap;html=1;aspect=fixed;rounded=0;strokeColor=default;fontSize=8;fillColor=none;" vertex="1" parent="1007">
                    <mxGeometry width="50" height="50" as="geometry"/>
                </mxCell>
                <mxCell id="1009" value="&lt;p style=&quot;line-height: 30%;&quot;&gt;&lt;span style=&quot;font-size: 16px;&quot;&gt;Thu 6&lt;/span&gt;&lt;/p&gt;" style="text;html=1;strokeColor=none;fillColor=none;align=center;verticalAlign=middle;whiteSpace=wrap;rounded=0;fillStyle=solid;fontSize=32;fontColor=#FFFFFF;" vertex="1" parent="1007">
                    <mxGeometry x="5.330624999999998" y="9.875" width="39.345625" height="31.25" as="geometry"/>
                </mxCell>
                <mxCell id="221" value="" style="group" parent="1056" vertex="1" connectable="0">
                    <mxGeometry x="780" y="12" width="132.5" height="100" as="geometry"/>
                </mxCell>
                <mxCell id="222" value="" style="rounded=1;whiteSpace=wrap;html=1;fillStyle=solid;strokeColor=default;fontSize=64;fontColor=#FFFFFF;fillColor=none;" parent="221" vertex="1">
                    <mxGeometry width="119.99999999999999" height="100" as="geometry"/>
                </mxCell>
                <mxCell id="1011" value="" style="ellipse;whiteSpace=wrap;html=1;aspect=fixed;rounded=0;strokeColor=default;fontSize=8;fillColor=none;" vertex="1" parent="221">
                    <mxGeometry x="32.5" y="10" width="50" height="50" as="geometry"/>
                </mxCell>
                <mxCell id="1012" value="&lt;p style=&quot;line-height: 30%;&quot;&gt;&lt;span style=&quot;font-size: 16px;&quot;&gt;Fri&amp;nbsp; &amp;nbsp;7&lt;/span&gt;&lt;/p&gt;" style="text;html=1;strokeColor=none;fillColor=none;align=center;verticalAlign=middle;whiteSpace=wrap;rounded=0;fillStyle=solid;fontSize=32;fontColor=#FFFFFF;" vertex="1" parent="221">
                    <mxGeometry x="37.830625" y="19.375" width="39.345625" height="31.25" as="geometry"/>
                </mxCell>
                <mxCell id="228" value="" style="group" parent="1056" vertex="1" connectable="0">
                    <mxGeometry x="20" y="7" width="110" height="110" as="geometry"/>
                </mxCell>
                <mxCell id="868" value="" style="group" vertex="1" connectable="0" parent="228">
                    <mxGeometry x="30" y="15" width="80" height="80" as="geometry"/>
                </mxCell>
                <mxCell id="147" value="" style="ellipse;whiteSpace=wrap;html=1;aspect=fixed;fillStyle=solid;strokeColor=default;fontSize=24;fontColor=#FFFFFF;fillColor=none;" parent="868" vertex="1">
                    <mxGeometry width="80" height="80" as="geometry"/>
                </mxCell>
                <mxCell id="148" value="&lt;font style=&quot;font-size: 64px;&quot;&gt;+&lt;/font&gt;" style="text;html=1;strokeColor=none;fillColor=none;align=center;verticalAlign=middle;whiteSpace=wrap;rounded=0;fillStyle=solid;fontSize=32;fontColor=#FFFFFF;" parent="868" vertex="1">
                    <mxGeometry x="10" y="25" width="60" height="30" as="geometry"/>
                </mxCell>
                <mxCell id="1053" value="" style="rounded=1;whiteSpace=wrap;html=1;fillStyle=solid;strokeColor=default;fontSize=64;fontColor=#FFFFFF;fillColor=none;" vertex="1" parent="1056">
                    <mxGeometry x="900" y="12" width="119.99999999999999" height="100" as="geometry"/>
                </mxCell>
                <mxCell id="1054" value="" style="ellipse;whiteSpace=wrap;html=1;aspect=fixed;rounded=0;strokeColor=default;fontSize=8;fillColor=none;" vertex="1" parent="1056">
                    <mxGeometry x="932.5" y="22" width="50" height="50" as="geometry"/>
                </mxCell>
                <mxCell id="1055" value="&lt;p style=&quot;line-height: 30%;&quot;&gt;&lt;span style=&quot;font-size: 16px;&quot;&gt;Sat 8&lt;/span&gt;&lt;/p&gt;" style="text;html=1;strokeColor=none;fillColor=none;align=center;verticalAlign=middle;whiteSpace=wrap;rounded=0;fillStyle=solid;fontSize=32;fontColor=#FFFFFF;" vertex="1" parent="1056">
                    <mxGeometry x="937.8306249999996" y="31.375" width="39.345625" height="31.25" as="geometry"/>
                </mxCell>
            </root>
        </mxGraphModel>
    </diagram>
</mxfile>